<svg id="eCDkYlpNo6x1" xmlns="http://www.w3.org/2000/svg" xmlns:xlink="http://www.w3.org/1999/xlink" viewBox="0 0 300 300" shape-rendering="geometricPrecision" text-rendering="geometricPrecision" project-id="5cea07e250db4d75978750892d39fcd6" export-id="38884822e9124c70954074f45828e4cb" cached="false"><g transform="matrix(.523937 0 0 0.523937 4.787813-6.610448)"><g><path d="M92.64,317.14l-14.84.28-7.51.12c-2.51,0-5,0-7.55,0h-.44v-.45-12.63-.46h.5l14.95.07c5,0,10,.11,15,.16h.27v.27c0,2.14-.09,4.27-.13,6.38l-.25,6.26Zm0,0l-.15-6.37c0-2.1-.11-4.19-.13-6.26l.28.27c-5,.06-10,.16-15,.17l-14.9.05.5-.5-.05,12.63-.45-.44c2.47,0,4.93,0,7.4.05l7.43.12l15.07.28Z" fill="#ebebeb"/><path d="M76,333.07l-14.83.28-7.52.12c-2.51,0-5,0-7.55,0h-.44v-.45l-.06-12.63v-.5h.5L61,320c5,0,10,.12,14.95.17h.27v.27c0,2.14-.08,4.27-.13,6.38L76,333.07Zm0,0l-.14-6.37c0-2.1-.11-4.19-.13-6.26l.27.27c-5,.06-10,.16-14.95.17l-14.95.06.5-.5-.05,12.63-.45-.44c2.47,0,4.93,0,7.4.05l7.44.12l15.06.27Z" fill="#ebebeb"/><path d="M76,59.71L61.13,60l-7.52.11c-2.51,0-5,0-7.55.06h-.44v-.45l-.06-12.63v-.5h.5L61,46.64c5,0,10,.12,14.95.17h.27v.27c0,2.14-.08,4.27-.13,6.38L76,59.71Zm0,0l-.14-6.37c0-2.1-.11-4.19-.13-6.26l.27.27c-5,0-10,.16-14.95.17l-14.95.06.5-.5-.05,12.63-.45-.44c2.47,0,4.93,0,7.4,0l7.44.12L76,59.71Z" fill="#ebebeb"/><path d="M453.94,59.71L439.1,60l-7.51.11c-2.51,0-5,0-7.55.06h-.44v-.45-12.63-.5h.5l14.95.06c5,0,10,.12,14.95.17h.27v.27c0,2.14-.09,4.27-.13,6.38l-.2,6.24Zm0,0l-.14-6.37c-.05-2.1-.12-4.19-.14-6.26l.28.27c-5,0-10,.16-14.95.17L424,47.58l.5-.5-.05,12.63-.45-.44c2.47,0,4.93,0,7.4,0l7.43.12l15.11.32Z" fill="#ebebeb"/><path d="M437.26,75.64l-14.83.28-7.52.11c-2.51,0-5,0-7.55.06h-.44v-.45L406.86,63v-.5h.5l14.95.06c5,0,10,.12,14.95.17h.28v.27c0,2.14-.08,4.27-.13,6.38l-.15,6.26Zm0,0l-.14-6.37c-.05-2.11-.11-4.19-.13-6.26l.27.27c-5,0-10,.16-14.95.17l-14.95.06.5-.5-.05,12.63-.45-.44c2.47,0,4.93,0,7.4,0l7.44.12l15.06.32Z" fill="#ebebeb"/><path d="M360.69,223.44l-14.83.28-7.52.11c-2.51,0-5,0-7.54,0h-.45v-.45l-.05-12.64v-.5h.51l14.94.07c5,0,10,.11,14.95.16h.3v.27c0,2.14-.08,4.27-.13,6.38l-.18,6.32Zm0,0l-.14-6.38c-.05-2.1-.11-4.18-.13-6.26l.27.28c-5,0-10,.16-14.95.16l-14.94.06.49-.5-.05,12.64-.44-.45c2.46,0,4.92,0,7.39.06l7.44.11l15.06.28Z" fill="#ebebeb"/><path d="M344,239.37l-14.83.28-7.51.11c-2.51.05-5,0-7.55.05h-.45v-.45l-.05-12.64v-.5h.5l14.95.07c5,0,10,.11,14.94.16h.28v.27c0,2.14-.09,4.27-.13,6.38l-.15,6.27Zm0,0l-.14-6.38c0-2.1-.11-4.18-.13-6.26l.27.28c-5,.05-10,.16-14.94.16l-14.95.06.5-.5-.06,12.64-.44-.45c2.46,0,4.93,0,7.4.06l7.43.11l15.06.28Z" fill="#ebebeb"/><path d="M327.4,223.44l-14.83.28-7.51.11c-2.51,0-5,0-7.55,0h-.45v-.45L297,210.8v-.5h.51l14.94.07c5,0,10,.11,14.95.16h.28v.27c0,2.14-.09,4.27-.13,6.38l-.15,6.26Zm0,0l-.14-6.38c0-2.1-.11-4.18-.13-6.26l.27.28c-5,0-10,.16-14.95.16l-14.94.06.5-.5-.01,12.64-.44-.45c2.46,0,4.92,0,7.4.06l7.43.11l15.01.28Z" fill="#ebebeb"/><path d="M453.94,333.07l-14.84.28-7.51.12c-2.51,0-5,0-7.55,0h-.44v-.45-12.63-.5h.5L439,320c5,0,10,.12,14.95.17h.27v.27c0,2.14-.09,4.27-.13,6.38l-.15,6.25Zm0,0l-.14-6.37c-.05-2.1-.12-4.19-.14-6.26l.28.27c-5,.06-10,.16-14.95.17l-14.95.06.5-.5-.05,12.63-.45-.44c2.47,0,4.93,0,7.4.05l7.43.12l15.07.27Z" fill="#ebebeb"/><path d="M199.93,97.28l-14.84.28-7.51.11c-2.51,0-5,0-7.55.06h-.44v-.45l-.05-12.63v-.5h.5l14.95.06c5,0,10,.11,15,.17h.27v.27c0,2.14-.09,4.27-.13,6.37l-.2,6.26Zm0,0l-.15-6.37c0-2.11-.11-4.19-.13-6.26l.28.27c-5,0-10,.16-15,.16L170,85.15l.5-.5-.05,12.63-.45-.44c2.47,0,4.93,0,7.4,0l7.43.11l15.1.33Z" fill="#ebebeb"/><path d="M423.23,181l5.88-9.49-2.9-1.8c-.850588-.533831-1.329701-1.499786-1.24-2.5.050132-.555175.070161-1.112658.06-1.67-.031477-.999343.50219-1.931328,1.38-2.41l3-1.61-5.28-9.85-3,1.62c-.883918.464725-1.953659.395211-2.77-.18-.457686-.317861-.931666-.611594-1.42-.88-.883864-.47498-1.425236-1.406912-1.4-2.41l.11-3.42-11.17-.4-.1,3.43c-.044906,1.001869-.647439,1.894081-1.56,2.31-.24.11-.49.24-.73.37s-.48.26-.71.4c-.852285.525078-1.927715.525078-2.78,0l-2.93-1.81-5.88,9.49L392.7,162c.848549.534786,1.324131,1.501416,1.23,2.5-.05176.551719-.06846,1.106166-.05,1.66.022582.999748-.513325,1.92891-1.39,2.41l-3,1.61l5.28,9.85l3-1.62c.883918-.464725,1.953659-.395211,2.77.18.457686.317861.931666.611594,1.42.88.882272.471609,1.423759,1.399873,1.4,2.4l-.11,3.43l11.17.35.1-3.43c.04219-.997424.641348-1.886497,1.55-2.3l.74-.38c.25-.13.49-.26.72-.4.856036-.524543,1.933964-.524543,2.79,0l2.91,1.86Zm-9.46-7.05c-4.451087,2.377213-9.986511.697503-12.365923-3.752409s-.702438-9.986165,3.746297-12.367776s9.985816-.707372,12.369626,3.740185c2.366798,4.446678.689657,9.97006-3.75,12.35v.03Z" fill="#ebebeb"/><path d="M101.53,288.51l5.89-9.49-2.91-1.8c-.848549-.534786-1.324131-1.501416-1.23-2.5.030107-.55626.030107-1.11374,0-1.67-.027187-1.00092.510005-1.93231,1.39-2.41l3-1.61-5.28-9.85-3,1.62c-.887501.464179-1.959768.394752-2.78-.18-.455315-.321457-.9295-.615318-1.42-.88-.88054-.478408-1.420611-1.408101-1.4-2.41l.11-3.42-11.16-.35-.1,3.43c-.041218,1.005531-.644328,1.902464-1.56,2.32-.25.11-.49.24-.74.37s-.48.26-.71.4c-.848524.525638-1.921476.525638-2.77,0L74,258.29l-5.89,9.49L71,269.59c.852162.531526,1.328918,1.500542,1.23,2.5c0,.55-.06,1.1,0,1.66.027187,1.00092-.510005,1.93231-1.39,2.41l-3,1.61l5.28,9.85l3-1.62c.887501-.464179,1.959768-.394752,2.78.18.452031.31816.922891.60869,1.41.87.88054.478408,1.420611,1.408101,1.4,2.41l-.1,3.43l11.16.34.11-3.42c.040779-1.000337.639786-1.89305,1.55-2.31.25-.11.49-.24.74-.37s.48-.26.71-.41c.854718-.529195,1.935282-.529195,2.79,0l2.86,1.79Zm-9.45-7.05c-3.261684,1.750618-7.25684,1.363478-10.121717-.980817s-4.03498-6.183828-2.964453-9.727444s4.170748-6.093083,7.854401-6.459067s7.224911,1.523629,8.971769,4.787328c1.147022,2.137391,1.397355,4.643077.695857,6.965146s-2.297281,4.270043-4.435857,5.414854Z" fill="#ebebeb"/><path d="M215.87,106.74L212,100l-2.08,1.2c-.610465.349218-1.366146.322091-1.95-.07-.322937-.210727-.656731-.404328-1-.58-.616449-.318879-1.002561-.955964-1-1.65v-2.4h-7.82v2.4c-.001963.692774-.386764,1.327695-1,1.65-.35.18-.69.37-1,.58-.595421.41302-1.37716.440381-2,.07L192,100l-3.91,6.78l2.08,1.2c.604713.354613.957046,1.020561.91,1.72c0,.19,0,.39,0,.58s0,.38,0,.58c.052357.695346-.297187,1.35948-.9,1.71l-2.09,1.21l3.91,6.78l2.08-1.2c.610465-.349218,1.366146-.322091,1.95.07.322937.210727.656731.404328,1,.58.613236.322305.998037.957226,1,1.65v2.34h7.82v-2.4c-.002561-.694036.383551-1.331121,1-1.65.35-.18.68-.37,1-.58.583854-.392091,1.339535-.419218,1.95-.07l2.08,1.2l3.91-6.78-2.08-1.2c-.604713-.354613-.957046-1.020561-.91-1.72c0-.19,0-.39,0-.58s0-.39,0-.58c-.047046-.699439.305287-1.365387.91-1.72l2.16-1.18Zm-7.48,3.5c0,2.592603-1.561746,4.929922-3.956999,5.922068s-5.152308.443734-6.985555-1.389514-2.38166-4.590302-1.389514-6.985555s3.329465-3.956999,5.922068-3.956999c3.540145,0,6.41,2.869855,6.41,6.41Z" fill="#ebebeb"/></g><g><path d="M88.84,303.84c-13.07,12.79-15.27,32.59-12.51,49.92.07.4.68.29.68-.08c0-3.95-.12-7.86-.11-11.76.07-.17.13-.34.2-.52c3.41-2.48,6.55-5.28,8.49-9.12c2.18-4.29,3-9.14,4.71-13.62.16-.43-.3-.3-.6-.08-8,5.86-10.48,12.17-12.76,20.6.044065-4.410441.506132-8.806774,1.38-13.13c1.72-8,5.11-15.93,10.86-21.86.22-.19-.12-.58-.34-.35Z" fill="#263238"/><path d="M91.29,305.33c2.25.08,3.66,3.67,5.41,4.72.370602.304508.853691.436083,1.327525.361569s.893222-.348011,1.152475-.751569c1.74-2.42-.64-5.41-2.88-7.09c1.6.66,2.93,1.82,4.65,2.15.447835.142774.935405.086527,1.33897-.154464s.684326-.643559.77103-1.105536c.76-3.31-3.39-4.77-6.23-4.84c1.38-1,5.33-3.57,3.23-4.85s-6.76,2.44-8.27,3.67c-2.23,1.8-4.88,4.5-5,7.32-.11,3.29,2.77,1.24,4.5.57Z" fill="#e30613"/><path d="M91.29,305.33c2.25.08,3.66,3.67,5.41,4.72.370602.304508.853691.436083,1.327525.361569s.893222-.348011,1.152475-.751569c1.74-2.42-.64-5.41-2.88-7.09c1.6.66,2.93,1.82,4.65,2.15.447835.142774.935405.086527,1.33897-.154464s.684326-.643559.77103-1.105536c.76-3.31-3.39-4.77-6.23-4.84c1.38-1,5.33-3.57,3.23-4.85s-6.76,2.44-8.27,3.67c-2.23,1.8-4.88,4.5-5,7.32-.11,3.29,2.77,1.24,4.5.57Z" opacity="0.1"/><path d="M90.64,305.89c2.88-1.31,8.4.57,8.87-.52.95-2.21-3.46-3.73-5.85-4c2.2-.59,6.4-1.54,6.27-3.65-.16-2.59-6.44-.36-9.63,2.08-4,3.07-4,6-3.32,6.63.91.79,3.19-.33,3.66-.54Z" fill="#e30613"/><path d="M59.07,302.57c13.55,12.29,16.49,32,14.4,49.42-.06.39-.67.31-.68-.06-.15-3.95-.18-7.86-.34-11.75-.08-.18-.15-.34-.22-.52-3.51-2.35-6.75-5-8.83-8.79-2.35-4.21-3.39-9-5.23-13.43-.17-.42.29-.32.6-.11c8.17,5.56,10.94,11.77,13.54,20.11-.221487-4.405396-.850846-8.780779-1.88-13.07-2-7.93-5.72-15.72-11.69-21.44-.22-.22.1-.57.33-.36Z" fill="#263238"/><path d="M56.68,304.16c-2.25.16-3.52,3.8-5.23,4.92-.359243.316851-.836657.465284-1.312227.407987s-.904067-.314877-1.177773-.707987c-1.83-2.35.43-5.43,2.61-7.19-1.58.72-2.86,1.93-4.57,2.32-.44128.164433-.93227.128709-1.3451-.097868s-.706636-.621578-.8049-1.082132c-.89-3.27,3.2-4.9,6-5.07-1.41-.91-5.46-3.36-3.41-4.72s6.85,2.18,8.41,3.35c2.29,1.71,5,4.31,5.25,7.12.28,3.29-2.67,1.37-4.42.75Z" fill="#e30613"/><path d="M56.68,304.16c-2.25.16-3.52,3.8-5.23,4.92-.359243.316851-.836657.465284-1.312227.407987s-.904067-.314877-1.177773-.707987c-1.83-2.35.43-5.43,2.61-7.19-1.58.72-2.86,1.93-4.57,2.32-.44128.164433-.93227.128709-1.3451-.097868s-.706636-.621578-.8049-1.082132c-.89-3.27,3.2-4.9,6-5.07-1.41-.91-5.46-3.36-3.41-4.72s6.85,2.18,8.41,3.35c2.29,1.71,5,4.31,5.25,7.12.28,3.29-2.67,1.37-4.42.75Z" opacity="0.1"/><path d="M57.35,304.69c-2.93-1.2-8.37.89-8.88-.18-1-2.18,3.31-3.86,5.68-4.25-2.21-.51-6.45-1.29-6.4-3.41.06-2.59,6.43-.61,9.7,1.71c4.13,2.92,4.21,5.88,3.57,6.5-.87.85-3.19-.18-3.67-.37Z" fill="#e30613"/><path d="M72.93,335c.911953,6.569333,2.3159,13.060915,4.2,19.42.052467.276142.318858.457467.595.405s.457467-.318858.405-.595c-.89-6-2.51-11.86-3.4-17.85-.962077-6.056069-1.297182-12.195194-1-18.32.57-10.09,3.31-20.83,9.89-28.72.14-.19-.16-.45-.31-.28C70,304.46,72.13,323.3,72.15,325c-1.87-6.36-3.79-13.65-10.85-20.13-.31-.28-.54-.15-.49.33c1.26,11.8,4.54,18,11.38,24.27.2,1.86.44,3.72.74,5.53Z" fill="#263238"/><path d="M83.65,291.14c2.37-1.06,5.64,2,8,2.17.533404.119839,1.092613.009054,1.540039-.305096s.741534-.802503.809961-1.344904c.59-3.39-3.39-5.3-6.56-5.9c2-.13,4,.41,5.92-.12.53722-.07451,1.015626-.37859,1.311139-.833374s.37902-1.015465.228861-1.536626C94,279.46,89,280,86,281.38c.94-1.69,3.73-6.38.91-6.65s-5.79,5.93-6.74,8c-1.4,3-2.79,7.12-1.48,10.09c1.54,3.45,3.51-.1,4.96-1.68Z" fill="#e30613"/><path d="M83.65,291.14c2.37-1.06,5.64,2,8,2.17.533404.119839,1.092613.009054,1.540039-.305096s.741534-.802503.809961-1.344904c.59-3.39-3.39-5.3-6.56-5.9c2-.13,4,.41,5.92-.12.53722-.07451,1.015626-.37859,1.311139-.833374s.37902-1.015465.228861-1.536626C94,279.46,89,280,86,281.38c.94-1.69,3.73-6.38.91-6.65s-5.79,5.93-6.74,8c-1.4,3-2.79,7.12-1.48,10.09c1.54,3.45,3.51-.1,4.96-1.68Z" opacity="0.1"/><path d="M83.25,292c2.33-2.8,9-3.63,8.94-5-.12-2.77-5.47-2.13-8.09-1.23c2-1.73,5.86-4.82,4.67-6.95-1.47-2.6-6.88,2.87-9,7-2.61,5.21-1.09,8.28-.1,8.56c1.4.43,3.2-1.88,3.58-2.38Z" fill="#e30613"/><path d="M64.25,338.58L58.44,383h35.37c-.72-3.93-7.31-44.46-7.31-44.46l-22.25.04Z" fill="#e30613"/></g><g><polygon points="43.37,383.14 95.03,382.9 146.69,382.81 250,382.64 353.31,382.81 404.97,382.9 456.63,383.14 404.97,383.39 353.31,383.48 250,383.64 146.69,383.48 95.03,383.39 43.37,383.14" fill="#263238"/></g><g><ellipse rx="149.06" ry="21.08" transform="translate(250 449.04)" fill="#ebebeb"/></g><g><path d="M157.57,227.67l-6.21-24.43-49,12.47-6.48-25.5L135,100.89L154.47,96l18.9,74.36l15.69-4L195.59,192l-15.69,4l6.2,24.43-28.53,7.24ZM124,182.87l24.26-6.17-8-31.56L124,182.87Z" fill="#263238"/><path d="M350.84,223l4-24.88L304.93,190l4.21-26l71.5-66.33l19.8,3.21-12.27,75.74l16,2.59-4.23,26.15-16-2.59-4,24.88-29.1-4.65Zm-13-54.47l24.7,4l5.21-32.15-29.91,28.15Z" fill="#263238"/><path d="M208.68,72.46c-1.961894.023883-3.903745-.396623-5.68-1.23-1.668649-.788022-3.164231-1.899511-4.4-3.27-2.45911-2.753517-3.831277-6.308354-3.86-10-.007675-1.885782.355902-3.754635,1.07-5.5.692289-1.71355,1.692062-3.286076,2.95-4.64c1.258958-1.355321,2.775076-2.446518,4.46-3.21c1.76305-.805061,3.681957-1.211378,5.62-1.19c1.963287-.02567,3.905247.409302,5.67,1.27c1.646832.812734,3.120643,1.93677,4.34,3.31c1.221192,1.37786,2.180282,2.967306,2.83,4.69c1.373368,3.469018,1.373368,7.330982,0,10.8-.678439,1.702448-1.664926,3.265232-2.91,4.61-1.254053,1.346976-2.763283,2.431309-4.44,3.19-1.775129.798431-3.703773,1.197813-5.65,1.17Zm-8.33-14.54c-.00358,1.219478.188875,2.431604.57,3.59.353574,1.115331.909511,2.156018,1.64,3.07.708793.893923,1.602564,1.623949,2.62,2.14c1.0968.553228,2.311757.831227,3.54.81c1.240728.026647,2.468279-.25875,3.57-.83c1.023615-.537253,1.920371-1.287391,2.63-2.2.719147-.924141,1.264649-1.971098,1.61-3.09.759908-2.302248.759908-4.787752,0-7.09-.366053-1.112029-.924534-2.151141-1.65-3.07-.715775-.885811-1.612428-1.608588-2.63-2.12-2.239867-1.080356-4.850133-1.080356-7.09,0-1.023396.528838-1.920512,1.272455-2.63,2.18-.706853.921589-1.245143,1.960929-1.59,3.07-.378643,1.142366-.577679,2.336581-.59,3.54Z" fill="#263238"/><path d="M236.23,72.66c-1.595002.029641-3.178674-.27347-4.65-.89-1.316478-.550609-2.504737-1.36775-3.49-2.4-.956772-1.008423-1.707478-2.193928-2.21-3.49-1.013562-2.697947-1.013562-5.672053,0-8.37.500208-1.303182,1.251032-2.495667,2.21-3.51.985263-1.03225,2.173522-1.849391,3.49-2.4c1.471326-.61653,3.054998-.919641,4.65-.89c1.585311-.029878,3.159242.273326,4.62.89c1.309046.553511,2.490203,1.370449,3.47,2.4.956772,1.008423,1.707478,2.193928,2.21,3.49c1.013562,2.697947,1.013562,5.672053,0,8.37-.499371,1.290753-1.23912,2.475032-2.18,3.49-.981589,1.032-2.166542,1.849209-3.48,2.4-1.466592.622582-3.046892.932511-4.64.91Zm-5.54-10.94c-.01295.872338.132751,1.739766.43,2.56.260853.734267.657784,1.41278,1.17,2c.470228.553436,1.053231,1.000064,1.71,1.31c1.389157.62718,2.980843.62718,4.37,0c.67116-.305048,1.268207-.75198,1.75-1.31.512-.589134.911915-1.266956,1.18-2c.2889-.832505.431012-1.708861.42-2.59.007851-.864577-.134253-1.72397-.42-2.54-.268085-.733044-.668-1.410866-1.18-2-.481793-.55802-1.07884-1.004952-1.75-1.31-.683822-.313392-1.427795-.47379-2.18-.47-.758-.007557-1.507495.160138-2.19.49-.66805.319155-1.263628.771795-1.75,1.33-.512216.58722-.909147,1.265733-1.17,2-.278828.813576-.41088,1.670224-.39,2.53Z" fill="#263238"/><path d="M263.61,72.66c-1.527576.036394-3.035792-.347579-4.36-1.11-1.222967-.719054-2.228518-1.755705-2.91-3v12.31h-5.41v-29.77h4.73v3.64c.742263-1.209767,1.773048-2.216501,3-2.93c1.323844-.741164,2.823353-1.110859,4.34-1.07c1.382103-.017547,2.750043.27998,4,.87c1.188035.564968,2.251969,1.360369,3.13,2.34.894771,1.019739,1.593188,2.196199,2.06,3.47.499088,1.350544.74979,2.780222.74,4.22.009113,1.470619-.22054,2.932967-.68,4.33-.422328,1.276545-1.072873,2.465824-1.92,3.51-.797656.980994-1.796902,1.779026-2.93,2.34-1.176236.585009-2.476586.876645-3.79.85Zm-1.81-4.6c.778203.004091,1.546144-.177609,2.24-.53.674955-.343319,1.270958-.823527,1.75-1.41.501305-.612174.887544-1.310114,1.14-2.06.268679-.781833.4039-1.603298.4-2.43.004488-.846471-.144591-1.686737-.44-2.48-.281644-.739823-.702582-1.418756-1.24-2-.522872-.56547-1.155833-1.018071-1.86-1.33-.727688-.332567-1.51998-.499904-2.32-.49-.534494.00447-1.06472.095655-1.57.27-.534685.169043-1.04049.418574-1.5.74-.456132.323142-.86943.702839-1.23,1.13-.355495.422626-.636197.902864-.83,1.42v5c.469165,1.174569,1.233885,2.207974,2.22,3c.912861.751789,2.057427,1.165105,3.24,1.17Z" fill="#263238"/><path d="M284.54,72.66c-1.771445.003247-3.531444-.283893-5.21-.85-1.588474-.513975-3.059913-1.33635-4.33-2.42L277,66c1.17158.843121,2.440787,1.54152,3.78,2.08c1.166603.456314,2.407345.693615,3.66.7.886533.046017,1.767766-.162148,2.54-.6.594412-.376103.947551-1.036814.93-1.74.017801-.72392-.417148-1.382329-1.09-1.65-1.149292-.499692-2.336332-.907632-3.55-1.22-1.38-.37-2.55-.74-3.52-1.09-.835229-.277157-1.624044-.678307-2.34-1.19-.552694-.392457-.996587-.918934-1.29-1.53-.286505-.655204-.426433-1.365083-.41-2.08-.016532-1.005537.199054-2.00134.63-2.91.41188-.857539,1.013789-1.609926,1.76-2.2.785941-.625773,1.681059-1.100456,2.64-1.4c1.065528-.327921,2.175197-.489818,3.29-.48c1.516475-.009627,3.024989.219857,4.47.68c1.410117.472808,2.707262,1.232029,3.81,2.23l-2.18,3.27c-.95266-.740236-2.006771-1.339698-3.13-1.78-.957331-.369756-1.973769-.562879-3-.57-.804753-.027555-1.601247.169837-2.3.57-.619982.390508-.97679,1.088779-.93,1.82-.009384.323918.066481.644618.22.93.179583.269212.423658.489224.71.64.404552.223969.829878.408165,1.27.55.53.17,1.18.36,2,.54c1.46.38,2.7.76,3.74,1.14.881184.308752,1.713118.743244,2.47,1.29.615881.42893,1.117186,1.00234,1.46,1.67.331017.730784.488456,1.528248.46,2.33.073616,1.91254-.783509,3.742316-2.3,4.91-1.833575,1.264147-4.036679,1.88003-6.26,1.75Z" fill="#263238"/><path d="M297.67,61.47v-18.18h5.41v18.18h-5.41Zm0,10.79v-6.1h5.41v6.1h-5.41Z" fill="#263238"/></g><g><rect width="35.51" height="2.91" rx="0" ry="0" transform="translate(235.09 313.85)" fill="#37474f"/><rect width="35.51" height="2.91" rx="0" ry="0" transform="translate(235.09 317.63)" fill="#37474f"/><rect width="35.51" height="2.91" rx="0" ry="0" transform="translate(235.09 321.42)" fill="#37474f"/><rect width="35.51" height="2.91" rx="0" ry="0" transform="translate(235.09 325.21)" fill="#37474f"/><rect width="35.51" height="2.91" rx="0" ry="0" transform="translate(235.09 329)" fill="#37474f"/><rect width="67.52" height="2.91" rx="0" ry="0" transform="translate(218.46 404.59)" fill="#37474f"/><rect width="67.52" height="2.91" rx="0" ry="0" transform="translate(218.46 408.38)" fill="#37474f"/><rect width="67.52" height="2.91" rx="0" ry="0" transform="translate(218.46 412.17)" fill="#37474f"/><rect width="67.52" height="2.91" rx="0" ry="0" transform="translate(218.46 415.96)" fill="#37474f"/><rect width="67.52" height="2.91" rx="0" ry="0" transform="translate(218.46 419.75)" fill="#37474f"/><path d="M188.83,289.8c0-.39-14.77-5.36-14.77-5.36l.87-50.88l19.64-4.22-5.74,60.46Z" fill="#e30613"/><path d="M188.83,289.8c0-.39-14.77-5.36-14.77-5.36l.87-50.88l19.64-4.22-5.74,60.46Z" opacity="0.2"/><path d="M324.49,309.77c.1-.38,15.72.06,15.72.06l16.69-48.08-17-10.71-15.41,58.73Z" fill="#e30613"/><path d="M324.49,309.77c.1-.38,15.72.06,15.72.06l16.69-48.08-17-10.71-15.41,58.73Z" opacity="0.2"/><path d="M186,308.54c0,0,5.49-82.3,10.31-109.38c0,0,99.42,7.52,153.09,28c0,0-27.67,96.12-29.1,100.89-.02.04-70.03-13.75-134.3-19.51Z" fill="#e30613"/><path d="M274.72,210.15q-2.42,14.86-4.94,29.72l-5.13,29.67-.27-.41L297.69,277l16.64,4l16.61,4.11-16.7-3.74-16.69-3.81-33.34-7.79-.34-.08.06-.34l5.31-29.65q2.67-14.7,5.48-29.55Z" opacity="0.1"/><path d="M271.07,215.8c-.021993.990978-.766521,1.816341-1.75,1.94-.531172.040836-1.056685-.131936-1.46-.48-.413845-.373428-.653071-.902624-.66-1.46.006929-.557376.246155-1.086572.66-1.46.573177-.496374,1.383006-.613327,2.073203-.299405s1.13425,1.001175,1.136797,1.759405Zm0,0c-.004956-.457014-.205119-.890094-.55-1.19-.635324-.541366-1.583184-.490968-2.157519.114717s-.574335,1.554882,0,2.160566s1.522195.656083,2.157519.114717c.343327-.305302.542847-.740618.55-1.2Z" opacity="0.1"/><path d="M269.32,228.05c.004837.995914-.748911,1.831967-1.74,1.93-.544624.057073-1.087704-.121123-1.49264-.489768s-.633194-.892656-.62736-1.440232c-.003163-.557452.23363-1.089326.65-1.46.405823-.350622.935462-.523566,1.47-.48.979523.128195,1.718717.952353,1.74,1.94Zm0,0c-.002097-.460512-.202516-.897791-.55-1.2-.33023-.278636-.760695-.408861-1.19-.36-.793545.089995-1.393082.761368-1.393082,1.56s.599537,1.470005,1.393082,1.56c.443924.051577.88865-.089716,1.221405-.388048s.521581-.725052.518595-1.171952Z" opacity="0.1"/><path d="M267.17,241c.004837.995914-.748911,1.831967-1.74,1.93-.812891.017135-1.55525-.459552-1.877917-1.205856s-.161413-1.613672.407917-2.194144c.407385-.347026.936853-.516312,1.47-.47.992649.102869,1.745316.942049,1.74,1.94Zm0,0c-.002097-.460512-.202516-.897791-.55-1.2-.33023-.278636-.760695-.408861-1.19-.36-.793545.089995-1.393082.761368-1.393082,1.56s.599537,1.470005,1.393082,1.56c.430134.040273.858536-.092928,1.19-.37.349195-.296648.550321-.731811.55-1.19Z" opacity="0.1"/><path d="M265,253.93c.000173.994128-.751169,1.827513-1.74,1.93-.724513.052118-1.41744-.304871-1.795585-.925065s-.378145-1.399675,0-2.01987s1.071072-.977183,1.795585-.925065c.992649.102869,1.745316.942049,1.74,1.94Zm0,0c-.002097-.460512-.202516-.897791-.55-1.2-.33023-.278636-.760695-.408861-1.19-.36-.793545.089995-1.393082.761368-1.393082,1.56s.599537,1.470005,1.393082,1.56c.430134.040273.858536-.092928,1.19-.37.344881-.299906.545044-.732986.55-1.19Z" opacity="0.1"/><path d="M272.35,274.56c.000278.802069-.493053,1.521614-1.241296,1.810484s-1.597108.087499-2.135871-.50668-.65633-1.458643-.295816-2.175123s1.12477-1.137234,1.922983-1.058681c.992793.097702,1.749654.932411,1.75,1.93Zm0,0c-.007153-.459382-.206673-.894698-.55-1.2-.335534-.276074-.767908-.405786-1.2-.36-.665663.080878-1.206482.575599-1.346187,1.231443s.152547,1.328023.727462,1.673162s1.305572.287046,1.818725-.144605c.343327-.305302.542847-.740618.55-1.2Z" opacity="0.1"/><path d="M284.56,277.54c-.002547.75823-.4466,1.445484-1.136797,1.759405s-1.500026.196969-2.073203-.299405c-.42101-.368383-.662502-.900576-.662502-1.46s.241492-1.091617.662502-1.46c.404867-.344467.930212-.513585,1.46-.47.995052.093199,1.754355.930603,1.75,1.93Zm0,0c-.002097-.460512-.202516-.897791-.55-1.2-.335534-.276074-.767908-.405786-1.2-.36-.665663.080878-1.206482.575599-1.346187,1.231443s.152547,1.328023.727462,1.673162s1.305572.287046,1.818725-.144605c.347484-.302209.547903-.739488.55-1.2Z" opacity="0.1"/><path d="M296.77,280.52c.002647.758286-.43899,1.447859-1.128869,1.762616s-1.500149.196367-2.071131-.302616c-.413845-.373428-.653071-.902624-.66-1.46-.003163-.557452.23363-1.089326.65-1.46.407385-.347026.936853-.516312,1.47-.47.991089.098033,1.744837.934086,1.74,1.93Zm0,0c.001734-.459212-.195157-.896748-.54-1.2-.350322-.267657-.793655-.382995-1.23-.32-.793545.089995-1.393082.761368-1.393082,1.56s.599537,1.470005,1.393082,1.56c.431986.044652.86393-.084931,1.2-.36.366746-.30663.576067-.761996.57-1.24Z" opacity="0.1"/><path d="M309,283.5c-.002547.75823-.4466,1.445484-1.136797,1.759405s-1.500026.196969-2.073203-.299405c-.413845-.373428-.653071-.902624-.66-1.46.006929-.557376.246155-1.086572.66-1.46.403315-.348064.928828-.520836,1.46-.48.983479.123659,1.728007.949022,1.75,1.94Zm0,0c-.007153-.459382-.206673-.894698-.55-1.2-.513153-.431651-1.24381-.489745-1.818725-.144605s-.867167,1.017317-.727462,1.673162.680524,1.150565,1.346187,1.231443c.432092.045786.864466-.083926,1.2-.36.343327-.305302.542847-.740618.55-1.2Z" opacity="0.1"/><path d="M321.2,286.61c-.102362.981113-.904776,1.741071-1.89,1.79-.535062.005747-1.050115-.203155-1.43-.58-.387261-.401864-.583776-.950398-.539803-1.506754s.32422-1.067208.769803-1.403246c.425148-.321656.964893-.452064,1.49-.36.969333.196578,1.649404,1.07217,1.6,2.06Zm0,0c.029736-.456934-.137725-.904712-.46-1.23-.592214-.589116-1.542026-.611358-2.161168-.05061s-.690791,1.508115-.163028,2.155604s1.470115.768351,2.144196.275006c.368413-.273786.601498-.692611.64-1.15Z" opacity="0.1"/><path d="M262.87,266.86c.005316.997951-.747351,1.837131-1.74,1.94-.532516.040801-1.059931-.127829-1.47-.47-.643706-.5536-.852653-1.461454-.515721-2.240753s1.141459-1.248974,1.985721-1.159247c.988831.102487,1.740173.935872,1.74,1.93Zm0,0c-.004956-.457014-.205119-.890094-.55-1.19-.635324-.541366-1.583184-.490968-2.157519.114717s-.574335,1.554882,0,2.160566s1.522195.656083,2.157519.114717c.347484-.302209.547903-.739488.55-1.2Z" opacity="0.1"/><circle r="28.23" transform="matrix(.743612-.668612 0.668612 0.743612 223.431763 267.316922)" opacity="0.2"/><circle r="22.64" transform="matrix(.353965-.935259 0.935259 0.353965 223.430381 267.2935)" fill="#263238"/><rect width="5.36" height="5.36" rx="0" ry="0" transform="matrix(.987136 0.159881-.159881 0.987136 216.781804 258.138086)" fill="#e30613"/><rect width="5.36" height="5.36" rx="0" ry="0" transform="matrix(.987136 0.159881-.159881 0.987136 212.342187 251.987326)" fill="#e30613"/><rect width="5.36" height="5.36" rx="0" ry="0" transform="matrix(.987136 0.159881-.159881 0.987136 233.51147 255.417885)" fill="#e30613"/><rect width="5.36" height="5.36" rx="0" ry="0" transform="matrix(.987136 0.159881-.159881 0.987136 208.930556 273.04135)" fill="#e30613"/><rect width="5.36" height="5.36" rx="0" ry="0" transform="matrix(.987136 0.159881-.159881 0.987136 230.109839 276.471909)" fill="#e30613"/><rect width="5.36" height="5.36" rx="0" ry="0" transform="matrix(.987136 0.159881-.159881 0.987136 215.081316 268.601733)" fill="#e30613"/><rect width="5.36" height="5.36" rx="0" ry="0" transform="matrix(.987136 0.159881-.159881 0.987136 221.221013 264.229617)" fill="#e30613"/><rect width="5.36" height="5.36" rx="0" ry="0" transform="matrix(.987136 0.159881-.159881 0.987136 227.362309 259.84763)" fill="#e30613"/><rect width="5.36" height="5.36" rx="0" ry="0" transform="matrix(.987136 0.159881-.159881 0.987136 225.680094 270.312748)" fill="#e30613"/><circle r="28.23" transform="matrix(.633786-.773508 0.773508 0.633786 299.189594 279.119144)" fill="#e30613"/><circle r="28.23" transform="matrix(.633786-.773508 0.773508 0.633786 299.189594 279.119144)" opacity="0.2"/><path d="M326.66,285.67c-.13.56-.28,1.09-.44,1.63l-55-11.74c.13-1,.3-2,.53-2.95c2.182928-9.973652,9.579239-17.992415,19.344416-20.972385s20.378417-.457056,27.758018,6.598466s10.376284,17.544843,7.837566,27.433919h-.03Z" transform="translate(.000001 0)" opacity="0.2"/><circle r="22.64" transform="matrix(.922673-.385584 0.385584 0.922673 299.19636 279.112027)" fill="#263238"/><rect width="5.36" height="26.69" rx="0" ry="0" transform="matrix(.972897 0.231239-.231239 0.972897 299.660355 265.550693)" fill="#e30613"/><path d="M328.3,285.14L270.5,271.4c4.026091-15.694972,19.88546-25.26964,35.649315-21.522315s25.618066,19.434528,22.150685,35.262315Z" fill="#e30613"/><path d="M328.3,285.14L270.5,271.4c4.026091-15.694972,19.88546-25.26964,35.649315-21.522315s25.618066,19.434528,22.150685,35.262315Z" opacity="0.2"/><path d="M250.07,295.92c.134642-2.349156,1.053701-4.585179,2.61-6.35.83893-.930358,1.892975-1.641066,3.07-2.07c1.189029-.40327,2.451528-.543168,3.7-.41c2.595948.232096,4.839602,1.907099,5.8,4.33.891218,2.169593,1.097104,4.559968.59,6.85-.291092-2.150495-.96866-4.230628-2-6.14-.930765-1.724456-2.659438-2.871905-4.61-3.06-1.975201-.262087-3.969183.322669-5.49,1.61-1.59121,1.457792-2.843884,3.24635-3.67,5.24Z" opacity="0.1"/><path d="M193.72,238.34c.23-3,.57-6,.86-9s.65-6,1-9s.74-6,1.12-9s.81-6,1.22-9l.1-.8.81.05q9.78.61,19.51,1.61c3.24.33,6.48.71,9.72,1.12s6.47.9,9.68,1.48l-19.52-1.2-19.49-1.27.91-.74c-.44,3-.85,6-1.32,9s-.92,6-1.42,8.95-1,5.95-1.52,8.93-1.05,5.91-1.66,8.87Z" fill="#fff"/><path d="M198.41,261.16c.719874-3.663262,2.265738-7.114096,4.52-10.09.55-.76,1.18-1.46,1.78-2.18s1.33-1.33,2-2s1.47-1.18,2.22-1.75s1.58-1,2.39-1.52s1.71-.83,2.57-1.22l2.68-.93l2.78-.57c.93-.14,1.87-.17,2.81-.24c3.718652-.045644,7.40742.668969,10.84,2.1-3.541793-.744313-7.170682-.986688-10.78-.72-3.539725.322075-6.971397,1.388722-10.07,3.13-3.116599,1.7307-5.889175,4.018583-8.18,6.75-2.344359,2.756517-4.222447,5.877656-5.56,9.24Z" fill="#fff"/><path d="M276.29,268.78c1.223065-3.524643,3.22621-6.727625,5.86-9.37.65-.67,1.37-1.28,2.07-1.91s1.5-1.13,2.26-1.69s1.61-1,2.44-1.43s1.71-.8,2.58-1.17s1.8-.59,2.7-.86l2.79-.55l2.83-.18c.94,0,1.88.1,2.82.16c3.69702.45692,7.260716,1.668645,10.47,3.56-3.407171-1.221871-6.968172-1.962343-10.58-2.2-3.548358-.167915-7.092216.414777-10.4,1.71-3.310262,1.291882-6.359398,3.172183-9,5.55-2.71801,2.405215-5.027992,5.23528-6.84,8.38Z" fill="#fff"/><path d="M189.14,359.25c-7.23,0-23.06-1.62-33.25-14.72-13-16.76-8.32-48.92-8.12-50.28l5.66.86c0,.31-4.54,31.09,7,45.9c11.26,14.48,31.69,12.41,31.89,12.38l.65,5.69c-.25.02-1.65.17-3.83.17Z" fill="#e30613"/><path d="M189.14,359.25c-7.23,0-23.06-1.62-33.25-14.72-13-16.76-8.32-48.92-8.12-50.28l5.66.86c0,.31-4.54,31.09,7,45.9c11.26,14.48,31.69,12.41,31.89,12.38l.65,5.69c-.25.02-1.65.17-3.83.17Z" opacity="0.4" fill="#fff"/><path d="M155.1,299c-1.058458.004832-2.115469-.078792-3.16-.25-9.55-1.55-13.77-7.26-15.64-11.78s-2.3-9.97-1.3-16.29l12.1,2c-.63,3.89-.44,7.32.52,9.65.69,1.66,2,3.66,6.26,4.35c1.94.31,4,.15,6.23-3.16c1.542678-2.519608,2.581877-5.314579,3.06-8.23l12.11,2c-.791117,4.621196-2.490543,9.039704-5,13-3.72,5.71-9.06,8.71-15.18,8.71Z" fill="#e30613"/><path d="M201.1,375.63c0-.26-10.26-1.89-10.26-1.89l-5-33.41l12.39-4.9l2.87,40.2Z" fill="#e30613"/><path d="M201.1,375.63c0-.26-10.26-1.89-10.26-1.89l-5-33.41l12.39-4.9l2.87,40.2Z" opacity="0.2"/><path d="M302.3,375.69c0-.26,10.29-1.66,10.29-1.66l5.71-33.29-12.3-5.17-3.7,40.12Z" fill="#e30613"/><path d="M302.3,375.69c0-.26,10.29-1.66,10.29-1.66l5.71-33.29-12.3-5.17-3.7,40.12Z" opacity="0.2"/><path d="M196.84,328c0,0,82.79-3.53,110.75,1.13c0,0-8.21,80.1-8.65,81.66c0,0-82.36-.23-95.23,0c0-.05-6.97-53.32-6.87-82.79Z" fill="#e30613"/><path d="M222,349.91c0,0,45.19-1.79,60.46.56c0,0-4.49,40.39-4.73,41.18c0,0-45-.11-52,0c.01,0-3.08-27.65-3.73-41.74Z" opacity="0.2"/><path d="M228.16,391.63h-2.43c0,0-3.08-27.63-3.73-41.73l2.83-.1l3.33,41.83Z" opacity="0.2"/><path d="M241.49,359.87c-1.857801-.590432-3.888262-.001182-5.141374,1.49205s-1.481055,3.595145-.57718,5.322293s2.760815,2.737971,4.701997,2.559523s3.582715-1.510875,4.156557-3.373866c.777075-2.522789-.624241-5.200461-3.14-6Zm2.58,5.86c-.704757,2.220955-3.076188,3.450409-5.297379,2.746394s-3.451436-3.075035-2.748163-5.296461s3.073882-3.452464,5.295542-2.749933c1.06783.337668,1.95764,1.085957,2.473444,2.080053s.615294,2.152456.276556,3.219947Zm-2.58-5.86c-1.857801-.590432-3.888262-.001182-5.141374,1.49205s-1.481055,3.595145-.57718,5.322293s2.760815,2.737971,4.701997,2.559523s3.582715-1.510875,4.156557-3.373866c.777075-2.522789-.624241-5.200461-3.14-6Zm2.58,5.86c-.704757,2.220955-3.076188,3.450409-5.297379,2.746394s-3.451436-3.075035-2.748163-5.296461s3.073882-3.452464,5.295542-2.749933c1.06783.337668,1.95764,1.085957,2.473444,2.080053s.615294,2.152456.276556,3.219947Zm-2.58-5.86c-1.857801-.590432-3.888262-.001182-5.141374,1.49205s-1.481055,3.595145-.57718,5.322293s2.760815,2.737971,4.701997,2.559523s3.582715-1.510875,4.156557-3.373866c.777075-2.522789-.624241-5.200461-3.14-6Zm2.58,5.86c-.704757,2.220955-3.076188,3.450409-5.297379,2.746394s-3.451436-3.075035-2.748163-5.296461s3.073882-3.452464,5.295542-2.749933c1.06783.337668,1.95764,1.085957,2.473444,2.080053s.615294,2.152456.276556,3.219947Zm-1-10.94c-5.335035-1.684423-11.025432,1.27497-12.709875,6.609998s1.274927,11.025437,6.609948,12.709901s11.025442-1.274884,12.709927-6.609899c1.681054-5.325784-1.260786-11.008273-6.58-12.71h-.03Zm2.25,11.34c-.935006,2.920593-4.058159,4.532707-6.98051,3.603209s-4.54035-4.049606-3.616363-6.973704s4.041038-4.547976,6.966873-3.629505c1.416044.439347,2.598493,1.425122,3.285464,2.739s.821767,2.847426.374536,4.261h-.03Zm-.72-.23c.590432-1.857801.001182-3.888262-1.49205-5.141374s-3.595145-1.481055-5.322293-.57718-2.737971,2.760815-2.559523,4.701997s1.510875,3.582715,3.373866,4.156557c1.216001.385271,2.535344.270687,3.666718-.318453s1.98172-1.604377,2.363282-2.821547h-.03Zm-.56-.17c-.704757,2.220955-3.076188,3.450409-5.297379,2.746394s-3.451436-3.075035-2.748163-5.296461s3.073882-3.452464,5.295542-2.749933c1.073349.331427,1.970257,1.07713,2.492062,2.071937s.625435,2.156607.287938,3.228063h-.03Zm-2.58-5.86c-1.857801-.590432-3.888262-.001182-5.141374,1.49205s-1.481055,3.595145-.57718,5.322293s2.760815,2.737971,4.701997,2.559523s3.582715-1.510875,4.156557-3.373866c.779634-2.514048-.606274-5.187827-3.11-6h-.03Zm2.58,5.86c-.704757,2.220955-3.076188,3.450409-5.297379,2.746394s-3.451436-3.075035-2.748163-5.296461s3.073882-3.452464,5.295542-2.749933c1.073349.331427,1.970257,1.07713,2.492062,2.071937s.625435,2.156607.287938,3.228063h-.03Zm-2.58-5.86c-1.857801-.590432-3.888262-.001182-5.141374,1.49205s-1.481055,3.595145-.57718,5.322293s2.760815,2.737971,4.701997,2.559523s3.582715-1.510875,4.156557-3.373866c.779634-2.514048-.606274-5.187827-3.11-6h-.03Zm2.58,5.86c-.704757,2.220955-3.076188,3.450409-5.297379,2.746394s-3.451436-3.075035-2.748163-5.296461s3.073882-3.452464,5.295542-2.749933c1.073349.331427,1.970257,1.07713,2.492062,2.071937s.625435,2.156607.287938,3.228063h-.03Z" fill="#e30613"/><polygon points="238.99,374.31 235.27,373.13 234.65,375.83 237.95,376.87 238.99,374.31" fill="#e30613"/><polygon points="232.31,370.82 230.51,367.37 228.16,368.83 229.76,371.91 232.31,370.82" fill="#e30613"/><polygon points="230.05,363.64 231.22,359.93 228.53,359.3 227.48,362.61 230.05,363.64" fill="#e30613"/><polygon points="233.53,356.96 236.99,355.17 235.52,352.82 232.45,354.42 233.53,356.96" fill="#e30613"/><polygon points="240.71,354.7 244.43,355.88 245.05,353.18 241.75,352.14 240.71,354.7" fill="#e30613"/><polygon points="247.39,358.18 249.19,361.64 251.54,360.18 249.94,357.1 247.39,358.18" fill="#e30613"/><polygon points="249.65,365.37 248.48,369.08 251.18,369.71 252.22,366.4 249.65,365.37" fill="#e30613"/><polygon points="246.17,372.04 242.72,373.84 244.18,376.19 247.25,374.59 246.17,372.04" fill="#e30613"/><path d="M257.84,374c-1.09695-.717995-2.518483-.704155-3.601246.035062s-1.613326,2.058098-1.344105,3.341195s1.285159,2.277489,2.573731,2.519149s2.595779-.317049,3.31162-1.415406c.975679-1.497042.555124-3.501385-.94-4.48Zm.61,4.26c-.856046,1.314213-2.615363,1.685675-3.929622.8297s-1.685816-2.615273-.829911-3.929578s2.615182-1.685956,3.929533-.830122c.634069.411134,1.078135,1.058023,1.23391,1.797488s.010415,1.510523-.40391,2.142512v-.01Zm-.61-4.26c-1.09695-.717995-2.518483-.704155-3.601246.035062s-1.613326,2.058098-1.344105,3.341195s1.285159,2.277489,2.573731,2.519149s2.595779-.317049,3.31162-1.415406c.975679-1.497042.555124-3.501385-.94-4.48Zm.61,4.26c-.856046,1.314213-2.615363,1.685675-3.929622.8297s-1.685816-2.615273-.829911-3.929578s2.615182-1.685956,3.929533-.830122c.634069.411134,1.078135,1.058023,1.23391,1.797488s.010415,1.510523-.40391,2.142512v-.01Zm-.61-4.26c-1.09695-.717995-2.518483-.704155-3.601246.035062s-1.613326,2.058098-1.344105,3.341195s1.285159,2.277489,2.573731,2.519149s2.595779-.317049,3.31162-1.415406c.975679-1.497042.555124-3.501385-.94-4.48Zm.61,4.26c-.856046,1.314213-2.615363,1.685675-3.929622.8297s-1.685816-2.615273-.829911-3.929578s2.615182-1.685956,3.929533-.830122c.634069.411134,1.078135,1.058023,1.23391,1.797488s.010415,1.510523-.40391,2.142512v-.01Zm1.34-7.26c-3.157831-2.05155-7.380805-1.155448-9.43336,2.00173s-1.157797,7.380437,1.998728,9.433996s7.380068,1.160145,9.434632-1.995726c.987474-1.516789,1.331535-3.363891.956408-5.134493s-1.438677-3.319482-2.956408-4.305507Zm-.59,7.75c-.82503,1.268738-2.33336,1.915212-3.821102,1.637735s-2.661624-1.424208-2.973832-2.905051.2988-3.003885,1.547888-3.858373s2.890027-.871979,4.157046-.044311c.832099.541829,1.414576,1.392315,1.619042,2.363995s.014134,1.984784-.529042,2.816005v-.01Zm-.42-.27c.967277-1.496298.540243-3.49326-.954398-4.463096s-3.49233-.546219-4.464722.94676-.552193,3.491391.93912,4.466336c1.498129.969856,3.498049.55023,4.48-.94v-.01Zm-.33-.22c-.856046,1.314213-2.615363,1.685675-3.929622.8297s-1.685816-2.615273-.829911-3.929578s2.615182-1.685956,3.929533-.830122c.634069.411134,1.078135,1.058023,1.23391,1.797488s.010415,1.510523-.40391,2.142512v-.01Zm-.61-4.26c-1.09695-.717995-2.518483-.704155-3.601246.035062s-1.613326,2.058098-1.344105,3.341195s1.285159,2.277489,2.573731,2.519149s2.595779-.317049,3.31162-1.415406c.975679-1.497042.555124-3.501385-.94-4.48Zm.61,4.26c-.856046,1.314213-2.615363,1.685675-3.929622.8297s-1.685816-2.615273-.829911-3.929578s2.615182-1.685956,3.929533-.830122c.634069.411134,1.078135,1.058023,1.23391,1.797488s.010415,1.510523-.40391,2.142512v-.01Zm-.61-4.26c-1.09695-.717995-2.518483-.704155-3.601246.035062s-1.613326,2.058098-1.344105,3.341195s1.285159,2.277489,2.573731,2.519149s2.595779-.317049,3.31162-1.415406c.975679-1.497042.555124-3.501385-.94-4.48Zm.61,4.26c-.856046,1.314213-2.615363,1.685675-3.929622.8297s-1.685816-2.615273-.829911-3.929578s2.615182-1.685956,3.929533-.830122c.634069.411134,1.078135,1.058023,1.23391,1.797488s.010415,1.510523-.40391,2.142512v-.01Z" fill="#dbdbdb"/><polygon points="253.6,382.92 251.4,381.49 250.51,383.12 252.47,384.39 253.6,382.92" fill="#dbdbdb"/><polygon points="249.9,379.45 249.36,376.89 247.57,377.41 248.05,379.7 249.9,379.45" fill="#dbdbdb"/><polygon points="249.73,374.39 251.16,372.19 249.53,371.3 248.25,373.25 249.73,374.39" fill="#dbdbdb"/><polygon points="253.2,370.69 255.76,370.14 255.24,368.36 252.95,368.84 253.2,370.69" fill="#dbdbdb"/><polygon points="258.26,370.52 260.46,371.95 261.35,370.31 259.4,369.04 258.26,370.52" fill="#dbdbdb"/><polygon points="261.96,373.98 262.51,376.55 264.29,376.02 263.81,373.74 261.96,373.98" fill="#dbdbdb"/><polygon points="262.13,379.05 260.7,381.25 262.33,382.14 263.61,380.18 262.13,379.05" fill="#dbdbdb"/><polygon points="258.67,382.75 256.1,383.29 256.63,385.08 258.91,384.6 258.67,382.75" fill="#dbdbdb"/><polygon points="305.59,401.41 308.78,402.01 317.88,340.38 314.25,339.71 305.59,401.41" fill="#e30613"/><path d="M277.72,391.65l4.73-41.18l31.8-10.76c0,0-8.66,62.37-8.66,61.7l-27.87-9.76Z" fill="#e30613"/><path d="M277.72,391.65l4.73-41.18l31.8-10.76c0,0-8.66,62.37-8.66,61.7l-27.87-9.76Z" opacity="0.4" fill="#fff"/><path d="M200.64,352.14c-.52-3.41-.8-6.85-1-10.29-.1-1.72-.14-3.45-.18-5.17s-.06-3.45,0-5.18v-.45h.44c6.32-.34,12.63-.76,19-1s12.64-.6,19-.8c-6.31.57-12.61,1.06-18.92,1.52s-12.63.84-18.94,1.27l.46-.47v5.15l.06,5.15c0,1.72,0,3.44.09,5.15l-.01,5.12Z" fill="#fff"/><path d="M286.88,351.08q3-1.41,6-2.61t6.12-2.32c2.06-.7,4.13-1.39,6.24-2c2.099925-.617806,4.233393-1.115281,6.39-1.49l.53-.09-.09.51c-.5,2.67-1,5.33-1.64,8c.23-2.71.56-5.41.9-8.1l.44.43c-2.1.5-4.18,1.08-6.26,1.7s-4.15,1.27-6.21,1.94l-12.42,4.03Z" fill="#fff"/><polygon points="214.4,328.12 214.94,338.42 215.4,348.72 216.19,369.33 216.81,389.94 217.06,400.25 217.23,410.57 216.69,400.27 216.24,389.96 215.44,369.36 214.82,348.74 214.57,338.43 214.4,328.12" opacity="0.1"/><path d="M211.45,334.33c.156184.744326-.139319,1.510977-.754671,1.957917s-1.435809.490828-2.095329.112083c-.483266-.285426-.82436-.760781-.94-1.31-.102443-.547443.028026-1.112808.36-1.56.329072-.418348.811329-.688268,1.34-.75.991247-.096388,1.894464.573461,2.09,1.55Zm0,0c-.148797-.716579-.775739-1.233382-1.507544-1.242706s-1.37171.49134-1.538715,1.203895.183792,1.445415.843529,1.762234s1.451023.132413,1.90273-.443423c.283682-.361638.393448-.829972.3-1.28Z" opacity="0.1"/><path d="M212.16,346.68c.170411.97261-.394494,1.924028-1.33,2.24-.523608.160282-1.090654.090596-1.559873-.191698s-.796433-.750619-.900127-1.288302c-.102443-.547443.028026-1.112808.36-1.56.329072-.418348.811329-.688268,1.34-.75.991247-.096388,1.894464.573461,2.09,1.55Zm0,0c-.08133-.437706-.348101-.818798-.731536-1.045024s-.846009-.275449-1.268464-.134976c-.810233.250059-1.275509,1.098293-1.050949,1.91596s1.057805,1.309282,1.882104,1.110442s1.341771-1.01628,1.168845-1.846402Z" opacity="0.1"/><path d="M212.61,359.79c.170411.97261-.394494,1.924028-1.33,2.24-.509179.146957-1.055868.085814-1.52-.17-.483266-.285426-.82436-.760781-.94-1.31-.102443-.547443.028026-1.112808.36-1.56.460596-.605001,1.233497-.883177,1.974001-.710465s1.310586.76412,1.455999,1.510465Zm0,0c-.08133-.437706-.348101-.818798-.731536-1.045024s-.846009-.275449-1.268464-.134976c-.810233.250059-1.275509,1.098293-1.050949,1.91596s1.057805,1.309282,1.882104,1.110442s1.341771-1.01628,1.168845-1.846402Z" opacity="0.1"/><path d="M213.06,372.9c.170411.97261-.394494,1.924028-1.33,2.24-.522895.138492-1.07959.059274-1.543096-.219583s-.794293-.733571-.916904-1.260417c-.102443-.547443.028026-1.112808.36-1.56.460596-.605001,1.233497-.883177,1.974001-.710465s1.310586.76412,1.455999,1.510465Zm0,0c-.090985-.450743-.371501-.840552-.77-1.07-.384879-.202136-.833695-.245222-1.25-.12-.765034.242113-1.224373,1.022149-1.065027,1.8086s.886087,1.326171,1.685027,1.2514c.431088-.040742.827592-.253413,1.1-.59.28119-.36283.390686-.830012.3-1.28Z" opacity="0.1"/><path d="M213.51,386c.156184.744326-.139319,1.510977-.754671,1.957917s-1.435809.490828-2.095329.112083c-.481013-.283176-.821802-.754481-.94-1.3-.105359-.550659.02525-1.120257.36-1.57.329072-.418348.811329-.688268,1.34-.75.983478-.069089,1.870596.588822,2.09,1.55Zm0,0c-.087283-.434358-.355137-.811116-.736715-1.036247s-.840882-.277396-1.263285-.143753c-.765034.242113-1.224373,1.022149-1.065027,1.8086s.886087,1.326171,1.685027,1.2514c.44732-.036177.857392-.263247,1.125433-.623188s.368085-.817884.274567-1.256812h-.02Z" opacity="0.1"/><path d="M214,399.11c.21263,1.04658-.46342,2.06737-1.51,2.28s-2.06737-.46342-2.28-1.51c-.110256-.536728.0116-1.095051.335464-1.53703s.819529-.726392,1.364536-.78297c.983478-.069089,1.870596.588822,2.09,1.55Zm0,0c-.091176-.448114-.372031-.834745-.77-1.06-.383587-.206431-.834146-.249685-1.25-.12-.765034.242113-1.224373,1.022149-1.065027,1.8086s.886087,1.326171,1.685027,1.2514c.44732-.036177.857392-.263247,1.125433-.623188s.368085-.817884.274567-1.256812Z" opacity="0.1"/><rect width="48.98" height="5.72" rx="0" ry="0" transform="matrix(.957016-.290034 0.290034 0.957016 171.145026 433.357835)" fill="#e30613"/><rect width="48.98" height="5.72" rx="0" ry="0" transform="matrix(.957016-.290034 0.290034 0.957016 171.145026 433.357835)" opacity="0.4" fill="#fff"/><rect width="5.72" height="8.5" rx="0" ry="0" transform="matrix(.952979-.303035 0.303035 0.952979 190.100535 425.836468)" fill="#e30613"/><polygon points="172.43,446.86 160.33,394.48 123.82,403.14 141.8,454.19 172.43,446.86" fill="#e30613"/><polygon points="180.53,444.2 172.43,446.86 160.33,394.48 171.98,397.26 180.53,444.2" fill="#e30613"/><polygon points="180.53,444.2 172.43,446.86 160.33,394.48 171.98,397.26 180.53,444.2" opacity="0.2"/><circle r="6.21" transform="translate(218.86 421.89)" fill="#e30613"/><rect width="5.72" height="48.98" rx="0" ry="0" transform="matrix(.292038-.956407 0.956407 0.292038 281.143603 424.491762)" fill="#e30613"/><rect width="5.72" height="48.98" rx="0" ry="0" transform="matrix(.292038-.956407 0.956407 0.292038 281.143603 424.491762)" opacity="0.4" fill="#fff"/><rect width="8.5" height="5.72" rx="0" ry="0" transform="matrix(.305197-.952289 0.952289 0.305197 302.657098 432.065805)" fill="#e30613"/><polygon points="328.36,446.82 340.56,394.46 377.06,403.2 358.97,454.21 328.36,446.82" fill="#e30613"/><polygon points="320.26,444.14 328.36,446.82 340.56,394.46 328.91,397.21 320.26,444.14" fill="#e30613"/><polygon points="320.26,444.14 328.36,446.82 340.56,394.46 328.91,397.21 320.26,444.14" opacity="0.2"/><path d="M275.76,421.74c-.008089,2.516649,1.501144,4.790179,3.823517,5.759802s5.000189.444245,6.784027-1.331004s2.322137-4.450497,1.363735-6.777523-3.224621-3.847216-5.741279-3.851275c-1.648726-.005312-3.231889.645236-4.40053,1.808249s-1.826824,2.743019-1.82947,4.391751Z" fill="#e30613"/><path d="M322.66,357.13c.15-.14,15.21-14.1,32.92-9.32c18.11,4.88,33.06,32.16,33.21,32.44l5-2.72c-.66-1.21-16.26-29.73-36.76-35.25-20.86-5.62-37.65,10-38.35,10.7l3.98,4.15Z" fill="#e30613"/><path d="M322.66,357.13c.15-.14,15.21-14.1,32.92-9.32c18.11,4.88,33.06,32.16,33.21,32.44l5-2.72c-.66-1.21-16.26-29.73-36.76-35.25-20.86-5.62-37.65,10-38.35,10.7l3.98,4.15Z" opacity="0.4" fill="#fff"/><path d="M382.12,407.71L393,402c-1.369957-2.6193-2.22217-5.478119-2.51-8.42-.24-4,1.34-5.36,3.07-6.28c3.8-2,6.07-1.21,7.62-.3c2.17,1.29,4.38,3.91,6.22,7.4l10.85-5.73c-3-5.62-6.62-9.74-10.84-12.23s-11-4.5-19.57,0c-6.67,3.52-10.07,9.86-9.59,17.86.389916,4.682048,1.705335,9.240128,3.87,13.41Z" fill="#e30613"/><path d="M325,338c2.35-1.62,4.76-3.15,7.17-4.67s4.86-3,7.31-4.44s4.92-2.87,7.42-4.24l3.76-2.05c1.27-.65,2.52-1.33,3.81-2-1.17.82-2.38,1.59-3.56,2.38l-3.62,2.29c-2.41,1.53-4.85,3-7.3,4.44s-4.93,2.87-7.43,4.24-5.05,2.8-7.56,4.05Z" fill="#263238"/><path d="M318.72,361.42c3.37,1.92,6.56,4.09,9.71,6.31s6.21,4.56,9.12,7.12c-3.340385-1.939251-6.581144-4.045243-9.71-6.31-3.12-2.25-6.21-4.54-9.12-7.12Z" fill="#263238"/><path d="M324.25,358.54c2.6.79,5.16,1.69,7.71,2.59s5.04,1.87,7.61,2.87s5,2,7.52,3l3.74,1.6c1.23.57,2.47,1.11,3.69,1.7-1.3-.38-2.58-.83-3.87-1.24l-3.83-1.34c-2.56-.9-5.09-1.87-7.61-2.84s-5-2-7.53-3-4.98-2.16-7.43-3.34Z" fill="#263238"/><path d="M331.63,340.22c2.49-.65,5-1.19,7.51-1.71s5-1,7.56-1.45s5.05-.86,7.59-1.22l3.81-.53c1.28-.14,2.55-.31,3.84-.42-1.25.33-2.5.6-3.75.91l-3.76.8c-2.51.53-5,1-7.56,1.45s-5.06.86-7.6,1.21-5.08.74-7.64.96Z" fill="#263238"/></g><g><path d="M271.62,355.79c.434863-2.031348,1.106101-4.004787,2-5.88.866845-1.89763,1.97974-3.672882,3.31-5.28c1.331198-1.643949,3.049073-2.932355,5-3.75c2.039254-.756019,4.285491-.734661,6.31.06c2.030293.842505,3.649442,2.447293,4.51,4.47.449117.983421.732927,2.034194.84,3.11.138277,1.103915.011439,2.224891-.37,3.27-.211359.57282-.595817,1.065625-1.1,1.41-.273259.181593-.584614.297924-.91.34-.335563.055519-.679742.024543-1-.09-.564728-.279663-1.019058-.741037-1.29-1.31-.254363-.489329-.452299-1.005976-.59-1.54-.505428-2.062682-.680936-4.192404-.52-6.31.210845-4.237987,1.460901-8.35905,3.64-12c1.117243-1.816483,2.594168-3.385291,4.34-4.61c1.748766-1.227564,3.770498-2.01017,5.89-2.28c1.035662-.189922,2.087118-.280333,3.14-.27.528557-.011881,1.057159.021575,1.58.1.52461.029949,1.046145.100156,1.56.21c2.061325.410274,4.041101,1.156913,5.86,2.21c1.78938,1.071235,3.435824,2.364869,4.9,3.85c1.474541,1.457788,2.770323,3.085908,3.86,4.85-2.328398-3.408387-5.40728-6.237538-9-8.27-1.788717-.973409-3.724064-1.648923-5.73-2-.993191-.148504-1.995779-.225369-3-.23-1.008186.014869-2.012688.125364-3,.33-1.991211.304844-3.884338,1.068256-5.53,2.23-1.639728,1.165733-3.021775,2.65671-4.06,4.38-2.066289,3.509836-3.243761,7.471362-3.43,11.54-.164428,2.011227-.012585,4.035799.45,6c.24.92.67,2,1.3,2.24.075025.023482.151997.040216.23.05.099431.015085.200569.015085.3,0c.188817-.022204.370081-.087186.53-.19.350328-.247053.615767-.596315.76-1c.33563-.903154.448821-1.873854.33-2.83-.098269-.983584-.351393-1.945453-.75-2.85-.764711-1.827136-2.194277-3.296014-4-4.11-1.845976-.768615-3.909916-.832668-5.8-.18-1.885593.745648-3.560723,1.940208-4.88,3.48-2.699403,3.133861-4.642723,6.846012-5.68,10.85Z" fill="#263238"/><path d="M179.22,381.7c.97565-1.81938,2.341601-3.400468,4-4.63c1.658491-1.277638,3.566065-2.193954,5.6-2.69c2.058494-.507231,4.214378-.462389,6.25.13c2.034186.632761,3.872536,1.775704,5.34,3.32c1.45952,1.534692,2.595387,3.347317,3.34,5.33.782206,1.979294,1.123464,4.105333,1,6.23-.037284,1.138435-.444505,2.23372-1.16,3.12-.441479.465707-1.048646.738753-1.69.76-.596388.010542-1.186484-.123259-1.72-.39-.546766-.292293-.982417-.756051-1.24-1.32-.236868-.529244-.366043-1.100336-.38-1.68-.013697-1.086334.16576-2.166458.53-3.19.698768-1.997528,1.733655-3.860999,3.06-5.51c1.294197-1.659179,2.819738-3.124103,4.53-4.35c3.416464-2.559582,7.675011-3.731397,11.92-3.28c2.091699.248697,4.113705.907973,5.95,1.94c1.822757,1.041244,3.42852,2.422947,4.73,4.07c1.271925,1.641333,2.308588,3.452128,3.08,5.38.787725,1.908874,1.338499,3.907108,1.64,5.95-.777507-4.031467-2.535959-7.809392-5.12-11-1.282803-1.563688-2.859058-2.861381-4.64-3.82-1.777501-.946523-3.72507-1.531134-5.73-1.72-4.032926-.369178-8.058569.778968-11.29,3.22-3.272487,2.367233-5.773611,5.647567-7.19,9.43-.339151.911834-.51189,1.877138-.51,2.85-.061131.878893.360207,1.721569,1.1,2.2.384821.202481.815335.302361,1.25.29.4023-.007118.78462-.176637,1.06-.47.571837-.73338.8942-1.630388.92-2.56.096645-1.996305-.244669-3.989581-1-5.84-.702858-1.878599-1.7623-3.603588-3.12-5.08-1.364419-1.482613-3.085755-2.591154-5-3.22-1.916166-.605576-3.958122-.695256-5.92-.26-3.968896.905878-7.417195,3.347374-9.59,6.79Z" fill="#263238"/><path d="M133,140.21c-.040819-4.127054-1.03322-8.189053-2.9-11.87-.907762-1.813169-2.246997-3.375609-3.9-4.55-1.682687-1.081864-3.702481-1.512137-5.68-1.21-1.945743.344378-3.687185,1.417135-4.87,3-.608246.776896-1.084601,1.648524-1.41,2.58-.345779.900671-.469269,1.871443-.36,2.83.04762.4218.221948.819267.5,1.14.129523.141911.290491.251506.47.32.093883.035888.190995.062677.29.08.079922.005005.160078.005005.24,0c.68-.13,1.35-1,1.8-1.86.891624-1.786389,1.505358-3.698407,1.82-5.67.785774-3.98705.590153-8.105382-.57-12-.599673-1.922951-1.586593-3.70281-2.9-5.23-1.32051-1.520872-2.977817-2.712489-4.84-3.48-.912744-.42281-1.863711-.757658-2.84-1-.98518-.245855-1.988336-.413048-3-.5-2.019393-.131671-4.046669.071057-6,.6-3.97908,1.106803-7.648102,3.119288-10.72,5.88c1.478311-1.459037,3.126828-2.734875,4.91-3.8c1.774854-1.088322,3.679887-1.948443,5.67-2.56c2.018176-.5894,4.119567-.842783,6.22-.75c1.049122.077967,2.091605.228325,3.12.45c1.028679.240176,2.032952.574933,3,1c1.994306.769445,3.771913,2.011711,5.18,3.62c1.403787,1.603795,2.46242,3.47938,3.11,5.51c1.246233,4.044567,1.483131,8.33277.69,12.49-.349425,2.092127-1.024264,4.116643-2,6-.263633.482644-.578807.935287-.94,1.35-.394524.502022-.948254.854717-1.57,1-.340564.031792-.683752-.019686-1-.15-.300718-.118062-.570803-.302677-.79-.54-.405965-.459819-.663855-1.03136-.74-1.64-.12073-1.1046.023239-2.222071.42-3.26.367184-1.018811.897422-1.971213,1.57-2.82c1.314428-1.761126,3.26805-2.935455,5.44-3.27c2.155156-.284506,4.339809.231413,6.14,1.45c1.715371,1.255282,3.090265,2.918903,4,4.84.925792,1.876097,1.598337,3.866832,2,5.92.384115,2.009208.531786,4.056465.44,6.1Z" fill="#263238"/><path d="M353.77,192.37c-4.019805-.933894-8.200195-.933894-12.22,0-1.973974.463797-3.804089,1.404607-5.33,2.74-1.45075,1.374677-2.341301,3.237708-2.5,5.23-.111711,1.980742.535532,3.929622,1.81,5.45.616641.781083,1.356313,1.456583,2.19,2c.795923.537425,1.707153.879993,2.66,1c.423736.04698.851872-.033078,1.23-.23.168543-.091018.312624-.221377.42-.38.06-.07.09-.18.15-.26s0-.16.05-.23c0-.69-.68-1.55-1.39-2.19-1.536973-1.301061-3.263519-2.35992-5.12-3.14-3.69807-1.701096-7.75558-2.473464-11.82-2.25-2.009037.134861-3.969235.67936-5.76,1.6-1.786601.926506-3.331227,2.258789-4.51,3.89-.637229.785868-1.199671,1.629532-1.68,2.52-.249425.442386-.463427.903828-.64,1.38-.217918.454587-.398513.926141-.54,1.41-.603889,1.940937-.884301,3.968013-.83,6c.15165,4.125442,1.253592,8.160192,3.22,11.79-1.073208-1.774413-1.929342-3.671339-2.55-5.65-.641413-1.983377-1.031131-4.039474-1.16-6.12-.103957-2.098174.135874-4.199228.71-6.22.142236-.50825.319322-1.006095.53-1.49.178247-.494839.392141-.9761.64-1.44.473012-.941855,1.035607-1.83598,1.68-2.67c1.215983-1.757422,2.838723-3.194903,4.73-4.19c1.888798-.983556,3.956831-1.575394,6.08-1.74c4.222325-.267454,8.445783.50513,12.3,2.25c1.954065.829181,3.766062,1.95957,5.37,3.35.407532.371534.776106.783667,1.1,1.23.37899.503888.579525,1.119567.57,1.75-.042516.336349-.169837.65637-.37.93-.187085.26892-.433412.491299-.72.65-.539392.286605-1.153419.401735-1.76.33-1.102513-.137516-2.15561-.538859-3.07-1.17-.905167-.594255-1.708779-1.330336-2.38-2.18-1.389607-1.677209-2.074315-3.828126-1.91-6c.223668-2.164463,1.234285-4.171461,2.84-5.64c1.628274-1.359838,3.564596-2.300533,5.64-2.74c2.038431-.44325,4.126565-.614739,6.21-.51c2.072655.076847,4.129553.39226,6.13.94Z" fill="#263238"/><path d="M291.86,127.67c-.665181-2.392123-.798301-4.900917-.39-7.35.355471-2.48795,1.231158-4.873088,2.57-7c1.32889-2.152412,3.206417-3.912593,5.44-5.1c2.263427-1.149412,4.783427-1.700232,7.32-1.6c2.52313.094099,5.001867.692532,7.29,1.76c2.323756,1.022728,4.395551,2.541589,6.07,4.45.913542.9882,1.475889,2.249964,1.6,3.59.012756.743234-.267425,1.461645-.78,2-.493071.49899-1.100737.869769-1.77,1.08-.69092.201176-1.428825.169552-2.1-.09-.633854-.255171-1.211443-.632303-1.7-1.11-.91358-.911858-1.65842-1.978332-2.2-3.15-1.073779-2.285468-1.750132-4.737246-2-7.25-.278635-2.494952-.201194-5.016845.23-7.49.781797-5.029163,3.431423-9.578521,7.42-12.74c1.994311-1.53484,4.270763-2.662873,6.7-3.32c2.422527-.637714,4.945556-.800709,7.43-.48c2.462915.324146,4.867078.997581,7.14,2c2.274738.964488,4.421111,2.207302,6.39,3.7-4.014624-2.802287-8.658416-4.571187-13.52-5.15-2.419523-.267929-4.868044-.064168-7.21.6-4.666399,1.395359-8.609634,4.546363-11,8.79-1.160417,2.118271-1.954913,4.417239-2.35,6.8-.833757,4.784004-.231769,9.707781,1.73,14.15.491924,1.073226,1.16892,2.051485,2,2.89.706465.832631,1.809549,1.215647,2.88,1c.513983-.162176.980757-.447045,1.36-.83.352057-.359748.543279-.846823.53-1.35-.125346-1.122402-.609294-2.174463-1.38-3-1.579721-1.809851-3.53516-3.253395-5.73-4.23-2.198218-1.02902-4.57582-1.620024-7-1.74-2.414897-.127753-4.822883.357284-7,1.41-2.160387,1.092873-3.992574,2.738736-5.31,4.77-2.729526,4.116853-3.688157,9.158676-2.66,13.99Z" fill="#263238"/><path d="M175.87,381.92c-2.238013-.70153-4.621263.542516-5.32525,2.779757s.537442,4.621856,2.773909,5.328299s4.622443-.532366,5.331341-2.768056c.705137-2.242119-.538878-4.631701-2.78-5.34Zm2.29,5.18c-.619131,1.964229-2.713045,3.054965-4.677498,2.436544s-3.055946-2.71194-2.438236-4.676616s2.710834-3.056927,4.675734-2.439928c1.963081.622198,3.053828,2.714286,2.44,4.68Zm-2.29-5.18c-2.238013-.70153-4.621263.542516-5.32525,2.779757s.537442,4.621856,2.773909,5.328299s4.622443-.532366,5.331341-2.768056c.705137-2.242119-.538878-4.631701-2.78-5.34Zm2.29,5.18c-.619131,1.964229-2.713045,3.054965-4.677498,2.436544s-3.055946-2.71194-2.438236-4.676616s2.710834-3.056927,4.675734-2.439928c1.963081.622198,3.053828,2.714286,2.44,4.68Zm-2.29-5.18c-2.238013-.70153-4.621263.542516-5.32525,2.779757s.537442,4.621856,2.773909,5.328299s4.622443-.532366,5.331341-2.768056c.705137-2.242119-.538878-4.631701-2.78-5.34Zm2.29,5.18c-.619131,1.964229-2.713045,3.054965-4.677498,2.436544s-3.055946-2.71194-2.438236-4.676616s2.710834-3.056927,4.675734-2.439928c1.963081.622198,3.053828,2.714286,2.44,4.68Zm-.87-9.67c-3.473626-1.112541-7.275265-.018537-9.626227,2.770155s-2.786323,6.720583-1.102388,9.956041s5.154152,5.134642,8.787025,4.808972s6.709968-2.81179,7.79159-6.295168c1.464729-4.717177-1.146028-9.733401-5.85-11.24Zm2,10c-.815102,2.585849-3.571853,4.021591-6.157891,3.207088s-4.022418-3.570922-3.208514-6.157148s3.56999-4.023245,6.156405-3.20994c1.245605.392653,2.28345,1.265383,2.88398,2.425156s.714254,2.511012.31602,3.754844l.01-.02Zm-.63-.19c.519141-1.639183-.000544-3.429676-1.316616-4.536195s-3.169207-1.31103-4.694899-.518129-2.423312,2.426981-2.274111,4.139923s1.315823,3.167221,2.955626,3.684401c2.227184.694762,4.598882-.531209,5.32-2.75l.01-.02Zm-.49-.16c-.619131,1.964229-2.713045,3.054965-4.677498,2.436544s-3.055946-2.71194-2.438236-4.676616s2.710834-3.056927,4.675734-2.439928c.945705.30072,1.733124.964964,2.188887,1.84648s.542499,1.908027.241113,2.85352l.01-.02Zm-2.29-5.18c-2.238013-.70153-4.621263.542516-5.32525,2.779757s.537442,4.621856,2.773909,5.328299s4.622443-.532366,5.331341-2.768056c.691376-2.238852-.555161-4.615761-2.79-5.32l.01-.02Zm2.29,5.18c-.619131,1.964229-2.713045,3.054965-4.677498,2.436544s-3.055946-2.71194-2.438236-4.676616s2.710834-3.056927,4.675734-2.439928c.945705.30072,1.733124.964964,2.188887,1.84648s.542499,1.908027.241113,2.85352l.01-.02Zm-2.29-5.18c-2.238013-.70153-4.621263.542516-5.32525,2.779757s.537442,4.621856,2.773909,5.328299s4.622443-.532366,5.331341-2.768056c.691376-2.238852-.555161-4.615761-2.79-5.32l.01-.02Zm2.29,5.18c-.619131,1.964229-2.713045,3.054965-4.677498,2.436544s-3.055946-2.71194-2.438236-4.676616s2.710834-3.056927,4.675734-2.439928c.945705.30072,1.733124.964964,2.188887,1.84648s.542499,1.908027.241113,2.85352l.01-.02Z" fill="#455a64"/><polygon points="173.66,394.69 170.37,393.65 169.82,396.04 172.74,396.96 173.66,394.69" fill="#455a64"/><polygon points="167.75,391.61 166.16,388.55 164.08,389.85 165.5,392.57 167.75,391.61" fill="#455a64"/><polygon points="165.75,385.26 166.79,381.97 164.4,381.42 163.48,384.34 165.75,385.26" fill="#455a64"/><polygon points="168.83,379.35 171.88,377.76 170.59,375.68 167.87,377.1 168.83,379.35" fill="#455a64"/><polygon points="175.18,377.35 178.47,378.38 179.02,376 176.1,375.08 175.18,377.35" fill="#455a64"/><polygon points="181.09,380.43 182.68,383.48 184.76,382.19 183.34,379.47 181.09,380.43" fill="#455a64"/><polygon points="183.09,386.78 182.05,390.07 184.44,390.62 185.36,387.7 183.09,386.78" fill="#455a64"/><polygon points="180.01,392.69 176.95,394.28 178.25,396.36 180.97,394.94 180.01,392.69" fill="#455a64"/><path d="M341.67,353.35c3.302981-4.449961,3.599726-10.451546.751833-15.205633s-8.279433-7.324195-13.761365-6.511633-9.934401,4.847732-11.280789,10.223518.678523,11.033243,5.130321,14.333748c6.075686,4.504435,14.652186,3.233179,19.16-2.84ZM335.81,349c-1.543097,2.079002-4.186797,3.023479-6.697918,2.392867s-4.394926-2.712068-4.772695-5.273453.824928-5.098057,3.047077-6.426759s5.025949-1.187657,7.103536.357345c1.363468,1.010637,2.268875,2.522171,2.516507,4.201191s-.182856,3.387581-1.196507,4.748809Z" fill="#263238"/><polygon points="324.96,357.3 320.73,354.16 318.75,357.33 322.51,360.12 324.96,357.3" fill="#263238"/><polygon points="317.97,349.9 317.2,344.69 313.55,345.52 314.24,350.16 317.97,349.9" fill="#263238"/><polygon points="318.26,339.72 321.4,335.49 318.23,333.5 315.44,337.26 318.26,339.72" fill="#263238"/><polygon points="325.66,332.73 330.87,331.96 330.04,328.31 325.4,329 325.66,332.73" fill="#263238"/><polygon points="335.84,333.01 340.07,336.15 342.05,332.99 338.29,330.19 335.84,333.01" fill="#263238"/><polygon points="342.83,340.42 343.6,345.63 347.25,344.79 346.56,340.16 342.83,340.42" fill="#263238"/><polygon points="342.54,350.59 339.4,354.82 342.57,356.81 345.36,353.05 342.54,350.59" fill="#263238"/><polygon points="335.14,357.59 329.93,358.36 330.76,362 335.4,361.32 335.14,357.59" fill="#263238"/><path d="M325.77,345.84l2.91,3.67l4.63-.69l1.72-4.35-2.91-3.67-4.63.69-1.72,4.35Zm5.51-1.87c.425146.31618.649317.835155.58807,1.361432s-.398607.979903-.885,1.19-1.047924.144748-1.47307-.171432c-.655173-.492747-.789228-1.422195-.3-2.08.237705-.311694.590054-.515539.978752-.566238s.781545.055945,1.091248.296238v-.03Z" fill="#263238"/><path d="M351.94,86.6c-1.959097-.616642-4.047245.471093-4.664759,2.429915s.469289,4.047454,2.427836,4.665842s4.047663-.467486,4.666923-2.425757c.300526-.941487.212989-1.963968-.243197-2.84067s-1.243312-1.535159-2.186803-1.82933Zm2,4.53c-.397774,1.261926-1.516815,2.159779-2.834956,2.274602s-2.575574-.576014-3.185554-1.750154-.45228-2.600157.399516-3.612642s2.229794-1.411875,3.490994-1.011806c1.719224.54536,2.672231,2.379787,2.13,4.1Zm-2-4.53c-1.959097-.616642-4.047245.471093-4.664759,2.429915s.469289,4.047454,2.427836,4.665842s4.047663-.467486,4.666923-2.425757c.300526-.941487.212989-1.963968-.243197-2.84067s-1.243312-1.535159-2.186803-1.82933Zm2,4.53c-.397774,1.261926-1.516815,2.159779-2.834956,2.274602s-2.575574-.576014-3.185554-1.750154-.45228-2.600157.399516-3.612642s2.229794-1.411875,3.490994-1.011806c1.719224.54536,2.672231,2.379787,2.13,4.1Zm-2-4.53c-1.959097-.616642-4.047245.471093-4.664759,2.429915s.469289,4.047454,2.427836,4.665842s4.047663-.467486,4.666923-2.425757c.300526-.941487.212989-1.963968-.243197-2.84067s-1.243312-1.535159-2.186803-1.82933Zm2,4.53c-.397774,1.261926-1.516815,2.159779-2.834956,2.274602s-2.575574-.576014-3.185554-1.750154-.45228-2.600157.399516-3.612642s2.229794-1.411875,3.490994-1.011806c1.719224.54536,2.672231,2.379787,2.13,4.1Zm-.76-8.46c-4.128978-1.300717-8.530753.991288-9.832687,5.119882s.988771,8.531045,5.11698,9.834197s8.531336-.986254,9.835707-5.114079c1.299508-4.13075-.991417-8.533623-5.12-9.84Zm1.74,8.77c-.52271,1.659754-1.994226,2.840858-3.727762,2.992067s-3.387318-.757289-4.189495-2.301479-.594595-3.41963.525862-4.751015s2.932888-1.856227,4.591395-1.329573c2.259643.717543,3.51217,3.128658,2.8,5.39Zm-.55-.17c.453102-1.435476-.00355-3.002534-1.156855-3.969892s-2.77592-1.144328-4.110639-.448327-2.118438,2.127778-1.985429,3.627179s1.156528,2.770859,2.592923,3.22104c1.95765.613547,4.042472-.473602,4.66-2.43Zm-.43-.14c-.397774,1.261926-1.516815,2.159779-2.834956,2.274602s-2.575574-.576014-3.185554-1.750154-.45228-2.600157.399516-3.612642s2.229794-1.411875,3.490994-1.011806c1.719224.54536,2.672231,2.379787,2.13,4.1Zm-2-4.53c-1.959097-.616642-4.047245.471093-4.664759,2.429915s.469289,4.047454,2.427836,4.665842s4.047663-.467486,4.666923-2.425757c.300526-.941487.212989-1.963968-.243197-2.84067s-1.243312-1.535159-2.186803-1.82933Zm2,4.53c-.397774,1.261926-1.516815,2.159779-2.834956,2.274602s-2.575574-.576014-3.185554-1.750154-.45228-2.600157.399516-3.612642s2.229794-1.411875,3.490994-1.011806c1.719224.54536,2.672231,2.379787,2.13,4.1Zm-2-4.53c-1.959097-.616642-4.047245.471093-4.664759,2.429915s.469289,4.047454,2.427836,4.665842s4.047663-.467486,4.666923-2.425757c.300526-.941487.212989-1.963968-.243197-2.84067s-1.243312-1.535159-2.186803-1.82933Zm2,4.53c-.397774,1.261926-1.516815,2.159779-2.834956,2.274602s-2.575574-.576014-3.185554-1.750154-.45228-2.600157.399516-3.612642s2.229794-1.411875,3.490994-1.011806c1.719224.54536,2.672231,2.379787,2.13,4.1Z" fill="#263238"/><polygon points="350,97.77 347.13,96.87 346.64,98.95 349.2,99.76 350,97.77" fill="#263238"/><polygon points="344.83,95.08 343.44,92.4 341.63,93.54 342.86,95.92 344.83,95.08" fill="#263238"/><polygon points="343.08,89.52 343.99,86.64 341.9,86.16 341.1,88.72 343.08,89.52" fill="#263238"/><polygon points="345.78,84.35 348.45,82.96 347.32,81.14 344.94,82.38 345.78,84.35" fill="#263238"/><polygon points="351.34,82.6 354.21,83.5 354.7,81.42 352.14,80.61 351.34,82.6" fill="#263238"/><polygon points="356.51,85.29 357.9,87.97 359.72,86.83 358.48,84.45 356.51,85.29" fill="#263238"/><polygon points="358.26,90.85 357.35,93.73 359.44,94.21 360.24,91.65 358.26,90.85" fill="#263238"/><polygon points="355.56,96.02 352.89,97.42 354.02,99.23 356.4,97.99 355.56,96.02" fill="#263238"/><path d="M313.73,229.47c-1.435476-.453102-3.002534.00355-3.969892,1.156855s-1.144328,2.77592-.448327,4.110639s2.127778,2.118438,3.627179,1.985429s2.770859-1.156528,3.22104-2.592923c.613547-1.95765-.473602-4.042472-2.43-4.66Zm2,4.53c-.397774,1.261926-1.516815,2.159779-2.834956,2.274602s-2.575574-.576014-3.185554-1.750154-.45228-2.600157.399516-3.612642s2.229794-1.411875,3.490994-1.011806c.82542.261702,1.51281.841043,1.910528,1.610215s.473084,1.664973.209472,2.489785h.01Zm-2-4.53c-1.435476-.453102-3.002534.00355-3.969892,1.156855s-1.144328,2.77592-.448327,4.110639s2.127778,2.118438,3.627179,1.985429s2.770859-1.156528,3.22104-2.592923c.613547-1.95765-.473602-4.042472-2.43-4.66Zm2,4.53c-.397774,1.261926-1.516815,2.159779-2.834956,2.274602s-2.575574-.576014-3.185554-1.750154-.45228-2.600157.399516-3.612642s2.229794-1.411875,3.490994-1.011806c.82542.261702,1.51281.841043,1.910528,1.610215s.473084,1.664973.209472,2.489785h.01Zm-2-4.53c-1.435476-.453102-3.002534.00355-3.969892,1.156855s-1.144328,2.77592-.448327,4.110639s2.127778,2.118438,3.627179,1.985429s2.770859-1.156528,3.22104-2.592923c.613547-1.95765-.473602-4.042472-2.43-4.66Zm2,4.53c-.397774,1.261926-1.516815,2.159779-2.834956,2.274602s-2.575574-.576014-3.185554-1.750154-.45228-2.600157.399516-3.612642s2.229794-1.411875,3.490994-1.011806c.82542.261702,1.51281.841043,1.910528,1.610215s.473084,1.664973.209472,2.489785h.01Zm-.75-8.47c-4.128978-1.300717-8.530753.991288-9.832687,5.119882s.988771,8.531045,5.11698,9.834197s8.531336-.986254,9.835707-5.114079c1.301166-4.1249-.979445-8.525139-5.1-9.84h-.02Zm1.74,8.78c-.521368,1.659554-1.991258,2.841507-3.724038,2.994537s-3.38707-.753013-4.191226-2.295503-.599748-3.41754.517878-4.750528s2.928281-1.861301,4.587386-1.338506c2.259643.717543,3.51217,3.128658,2.8,5.39h.01Zm-.55-.18c.616642-1.959097-.471093-4.047245-2.429915-4.664759s-4.047454.469289-4.665842,2.427836.467486,4.047663,2.425757,4.666923c1.95765.613547,4.042472-.473602,4.66-2.43h.01Zm-.44-.13c-.397774,1.261926-1.516815,2.159779-2.834956,2.274602s-2.575574-.576014-3.185554-1.750154-.45228-2.600157.399516-3.612642s2.229794-1.411875,3.490994-1.011806c.82542.261702,1.51281.841043,1.910528,1.610215s.473084,1.664973.209472,2.489785h.01Zm-2-4.53c-1.435476-.453102-3.002534.00355-3.969892,1.156855s-1.144328,2.77592-.448327,4.110639s2.127778,2.118438,3.627179,1.985429s2.770859-1.156528,3.22104-2.592923c.613547-1.95765-.473602-4.042472-2.43-4.66Zm2,4.53c-.397774,1.261926-1.516815,2.159779-2.834956,2.274602s-2.575574-.576014-3.185554-1.750154-.45228-2.600157.399516-3.612642s2.229794-1.411875,3.490994-1.011806c.82542.261702,1.51281.841043,1.910528,1.610215s.473084,1.664973.209472,2.489785h.01Zm-2-4.53c-1.435476-.453102-3.002534.00355-3.969892,1.156855s-1.144328,2.77592-.448327,4.110639s2.127778,2.118438,3.627179,1.985429s2.770859-1.156528,3.22104-2.592923c.613547-1.95765-.473602-4.042472-2.43-4.66Zm2,4.53c-.397774,1.261926-1.516815,2.159779-2.834956,2.274602s-2.575574-.576014-3.185554-1.750154-.45228-2.600157.399516-3.612642s2.229794-1.411875,3.490994-1.011806c.82542.261702,1.51281.841043,1.910528,1.610215s.473084,1.664973.209472,2.489785h.01Z" fill="#263238"/><polygon points="311.79,240.64 308.91,239.73 308.43,241.82 310.99,242.62 311.79,240.64" fill="#263238"/><polygon points="306.62,237.94 305.23,235.27 303.41,236.4 304.65,238.78 306.62,237.94" fill="#263238"/><polygon points="304.87,232.38 305.77,229.51 303.69,229.03 302.88,231.58 304.87,232.38" fill="#263238"/><polygon points="307.56,227.21 310.24,225.82 309.1,224 306.72,225.24 307.56,227.21" fill="#263238"/><polygon points="313.12,225.46 316,226.37 316.48,224.28 313.92,223.48 313.12,225.46" fill="#263238"/><polygon points="318.29,228.16 319.68,230.83 321.5,229.7 320.26,227.32 318.29,228.16" fill="#263238"/><polygon points="320.04,233.72 319.13,236.59 321.22,237.08 322.03,234.52 320.04,233.72" fill="#263238"/><polygon points="317.35,238.89 314.67,240.28 315.81,242.1 318.19,240.86 317.35,238.89" fill="#263238"/><path d="M95,117c1.537425-6.326065-2.34352-12.700939-8.669173-14.240057s-12.701566,2.340121-14.242377,8.665362s2.336722,12.702191,8.66155,14.244695c6.328701,1.537765,12.706586-2.342675,14.25-8.67Zm-6.11-1.49c-.530231,2.168823-2.316864,3.803287-4.524198,4.138867s-4.398991-.694063-5.549819-2.607315-1.033315-4.331871.297573-6.124544s3.61204-2.604998,5.776444-2.057008c2.939663.72895,4.736797,3.69735,4.02,6.64l-.02.01Z" fill="#263238"/><polygon points="83.09,125.72 78.68,124.65 78.17,127.83 82.08,128.78 83.09,125.72" fill="#263238"/><polygon points="75.06,122.19 72.7,118.32 70.09,120.2 72.19,123.65 75.06,122.19" fill="#263238"/><polygon points="71.88,114.02 72.95,109.62 69.78,109.1 68.82,113.02 71.88,114.02" fill="#263238"/><polygon points="75.41,106 79.28,103.64 77.4,101.03 73.96,103.13 75.41,106" fill="#263238"/><polygon points="83.58,102.82 87.99,103.89 88.5,100.71 84.58,99.76 83.58,102.82" fill="#263238"/><polygon points="91.61,106.35 93.96,110.22 96.58,108.34 94.48,104.89 91.61,106.35" fill="#263238"/><polygon points="94.79,114.52 93.71,118.92 96.89,119.44 97.85,115.52 94.79,114.52" fill="#263238"/><polygon points="91.26,122.54 87.38,124.9 89.27,127.51 92.71,125.42 91.26,122.54" fill="#263238"/><path d="M79.89,116.37l3.54,1.93l3.44-2.1-.09-4-3.54-1.94-3.44,2.09.09,4.02ZM83.64,113c.685922.169069,1.105181.861878.936761,1.54796s-.860832,1.105996-1.547073.938224-1.10681-.859785-.939688-1.546184c.172342-.684727.863148-1.103667,1.55-.94Z" fill="#263238"/></g><g><path d="M361.59,238.94c-2.706901-4.014229-4.168009-8.738479-4.2-13.58c0-17.19,18.88-31.13,42.16-31.13s42.14,13.94,42.14,31.13-18.86,31.14-42.14,31.14c-11.29,0-21.52-3.27-29.08-8.61L356,251.58l5.59-12.64Z" fill="#fff"/><path d="M361.59,238.94c-5.391132-7.730348-5.758823-17.900522-.94-26c2.353407-3.964016,5.511246-7.39097,9.27-10.06c3.724547-2.705477,7.851713-4.807868,12.23-6.23c4.367259-1.421174,8.889857-2.310921,13.47-2.65c4.584945-.307355,9.190144-.072396,13.72.7c1.13.23,2.27.38,3.38.68l3.33.9l3.25,1.14c1.08.39,2.11.92,3.17,1.37c4.187606,1.953453,8.014859,4.600749,11.32,7.83c3.334854,3.249685,5.835723,7.256564,7.29,11.68c1.405902,4.471974,1.454621,9.260346.14,13.76-1.379755,4.448015-3.819765,8.494107-7.11,11.79-3.254261,3.289532-7.049456,5.995554-11.22,8-4.149844,2.003037-8.559098,3.416691-13.1,4.2-4.522757.803972-9.125242,1.06582-13.71.78-4.584151-.274725-9.11429-1.135048-13.48-2.56-4.373581-1.405966-8.507615-3.469611-12.26-6.12h.18L356,251.69l-.22.05.1-.2l5.71-12.6Zm0,0l-5.54,12.68-.13-.15l14.49-3.8h.1l.09.06c7.587355,5.044708,16.415918,7.905689,25.52,8.27c4.526041.244994,9.065131-.053807,13.52-.89c4.456572-.766796,8.784751-2.150063,12.86-4.11c4.069477-1.962754,7.772955-4.607613,10.95-7.82c3.174279-3.190248,5.522182-7.106852,6.84-11.41c1.252854-4.315659,1.197172-8.906002-.16-13.19-1.387424-4.276285-3.789112-8.153295-7-11.3-3.204935-3.164885-6.924594-5.761883-11-7.68-1-.44-2-1-3.11-1.35l-3.19-1.14-3.27-.89c-1.09-.29-2.21-.45-3.32-.68-4.463165-.766197-8.999873-1.014508-13.52-.74-4.51994.304132-8.986087,1.157065-13.3,2.54-4.325029,1.355818-8.411159,3.380325-12.11,6-3.714652,2.604018-6.858803,5.938724-9.24,9.8-2.363157,3.901285-3.579608,8.389332-3.51,12.95.126119,4.574104,1.521402,9.023086,4.03,12.85Z" fill="#263238"/><path d="M377.86,230.46v2.32h-9.43v-13.59h9.26v2.32h-6.62v3.27h5.72v2.14h-5.72v3.54h6.79Z" fill="#263238"/><path d="M379.93,232.78v-13.59h6c.599042-.005298,1.191174.128189,1.73.39.515187.244721.979891.583921,1.37,1c.382342.427091.686942.917836.9,1.45.511237,1.314183.385711,2.790958-.34,4-.413067.699225-1.040883,1.246371-1.79,1.56l3.1,5.11h-3l-2.78-4.56h-2.6v4.56l-2.59.08Zm2.64-6.87h3.31c.237108-.000609.4705-.058957.68-.17.211888-.119789.398642-.279379.55-.47.157245-.212218.27884-.448652.36-.7.089353-.277798.133252-.568204.13-.86.0032-.299957-.047609-.598041-.15-.88-.094304-.255692-.233111-.492679-.41-.7-.163287-.191914-.364058-.348447-.59-.46-.211418-.104718-.44407-.159459-.68-.16h-3.2v4.4Z" fill="#263238"/><path d="M392.65,232.78v-13.59h6c.602335-.006119,1.197901.12737,1.74.39.510548.247566.971475.586483,1.36,1c.389157.421948.694576.914011.9,1.45.215559.520018.327651,1.07708.33,1.64.009489.846073-.219222,1.677751-.66,2.4-.415267.697392-1.042398,1.243942-1.79,1.56l3.1,5.11h-3l-2.77-4.56h-2.6v4.56l-2.61.04Zm2.65-6.87h3.31c.237108-.000609.4705-.058957.68-.17.210801-.117303.394738-.277397.54-.47.160922-.209911.282855-.447004.36-.7.092577-.277281.13985-.567673.14-.86.0032-.299957-.047609-.598041-.15-.88-.097716-.256231-.239897-.493201-.42-.7-.163287-.191914-.364058-.348447-.59-.46-.211044-.105752-.443943-.160552-.68-.16h-3.19v4.4Z" fill="#263238"/><path d="M411.18,232.87c-.935696.01537-1.86256-.182999-2.71-.58-.789732-.372836-1.496931-.899836-2.08-1.55-.586425-.644128-1.044612-1.394197-1.35-2.21-.317519-.812658-.480315-1.677514-.48-2.55-.001861-.891698.171418-1.775081.51-2.6.32363-.812812.7949-1.558707,1.39-2.2.60094-.639889,1.321092-1.156224,2.12-1.52.834221-.381453,1.742793-.572732,2.66-.56.931076-.011442,1.852038.193977,2.69.6.787663.384649,1.491232.921672,2.07,1.58.57806.652276,1.032172,1.404611,1.34,2.22.653571,1.644095.653571,3.475905,0,5.12-.311349.801628-.765346,1.54022-1.34,2.18-.598562.635625-1.315252,1.148517-2.11,1.51-.849823.387793-1.776077.579196-2.71.56ZM407.24,226c.000103.579837.087758,1.156336.26,1.71.168613.52719.433038,1.01875.78,1.45.342107.413099.763801.753175,1.24,1c.522054.257784,1.097824.388017,1.68.38.586957.012148,1.167721-.121874,1.69-.39.487108-.256363.913406-.614454,1.25-1.05.336889-.438398.594132-.932577.76-1.46.171485-.536678.259183-1.096591.26-1.66.00222-.578324-.092422-1.152937-.28-1.7-.168613-.52719-.433038-1.01875-.78-1.45-.339611-.419642-.766044-.760788-1.25-1-1.059141-.5069-2.290859-.5069-3.35,0-.484127.238942-.910614.580132-1.25,1-.335558.434047-.589665.92532-.75,1.45-.183191.554533-.271102,1.136097-.26,1.72Z" fill="#263238"/><path d="M419.85,232.78v-13.59h6c.599042-.005298,1.191174.128189,1.73.39.515187.244721.979891.583921,1.37,1c.382342.427091.686942.917836.9,1.45.511237,1.314183.385711,2.790958-.34,4-.413067.699225-1.040883,1.246371-1.79,1.56l3.1,5.11h-3l-2.78-4.56h-2.6v4.56l-2.59.08Zm2.64-6.87h3.31c.237108-.000609.4705-.058957.68-.17.211888-.119789.398642-.279379.55-.47.157245-.212218.27884-.448652.36-.7.089353-.277798.133252-.568204.13-.86.0032-.299957-.047609-.598041-.15-.88-.094304-.255692-.233111-.492679-.41-.7-.163287-.191914-.364058-.348447-.59-.46-.211418-.104718-.44407-.159459-.68-.16h-3.2v4.4Z" fill="#263238"/></g></g><g transform="matrix(.012396 0 0-.012396 98.084307 108.469233)"><path d="M2840,5216c-53-20-1960-1120-2001-1155-20-16-46-50-58-75-21-46-21-48-21-918c0-833,1-875,19-913c36-77,30-73,521-355c118-68,287-165,375-216c890-513,1159-664,1196-674c63-17,122-6,208,42c302,165,1922,1106,1948,1130c18,17,41,51,53,75c20,42,20,59,20,911v868l-25,50c-40,81,19,42-655,429-714,411-1010,581-1190,685-102,58-201,112-219,118-44,16-127,15-171-2Zm457-662c197-113,453-261,568-327c116-66,280-161,365-210s174-100,198-114s42-26,40-28c-2-1-93-54-203-117s-274-158-365-210-271-156-400-230-310-179-403-232l-167-96-113,64c-61,35-184,105-272,156s-281,162-430,248c-440,253-668,384-698,403l-29,17l94,54c51,30,174,101,273,158c666,382,876,503,1035,596c69,40,130,73,137,74c6,0,173-93,370-206ZM1518,3293c169-97,324-186,344-197c21-12,38-24,38-28c0-3-143-88-317-188-175-100-333-191-350-202l-33-20v406c0,223,2,406,5,406s144-80,313-177Zm3142-229v-405l-57,32c-364,208-638,369-640,376-2,5,50,39,114,76c65,36,219,125,343,196c124,72,228,131,233,131c4,0,7-183,7-406ZM2593,2675c260-149,304-166,387-147c32,7,138,62,285,147c128,74,237,135,240,135c8,0,124-65,435-245c113-65,268-154,345-198s151-86,163-94c27-17,67,10-373-243-99-57-252-145-340-196-88-50-305-176-483-278l-323-185-127,73c-70,40-248,143-397,228-148,86-342,197-430,248-88,50-255,147-372,213-160,92-209,125-200,133c7,6,109,67,227,134c118,68,305,175,415,238c249,144,298,172,307,172c3,0,112-61,241-135Z" fill="#f00"/></g></svg>
