<svg id="ewyxdslrPC31" xmlns="http://www.w3.org/2000/svg" xmlns:xlink="http://www.w3.org/1999/xlink" viewBox="0 0 300 300" shape-rendering="geometricPrecision" text-rendering="geometricPrecision" project-id="4e77bcd3c3384489a666cbc46ba9da07" export-id="bf70bfcd7a5040ffae7240880bd7a7a7" cached="false"><g transform="matrix(.016277 0 0-.0156 68.456561 238.693442)"><path d="M2232.208247,4097.880563c-37.512999-14.815477-1387.273156-829.666704-1416.292646-855.593789-14.155849-11.852381-32.558452-37.038692-41.051961-55.558038C760,3152.653139,760,3151.171592,760,2506.698348c0-617.064611.707792-648.177113,13.448056-676.326519c25.480527-57.039586,21.233773-54.076491,368.759854-262.974714c83.519506-50.372621,203.136426-122.227684,265.42216-160.00715c629.93526-380.016982,820.331422-491.873832,846.519742-499.28157c44.590923-12.593155,86.350676-4.444643,147.220825,31.112501c213.753313,122.227684,1360.377044,819.295871,1378.779647,837.074443c12.740264,12.593155,29.019489,37.779466,37.512999,55.558038c14.155849,31.112501,14.155849,43.705657,14.155849,674.844971v642.991696l-17.694811,37.038692c-28.311697,60.002681,13.448056,31.112501-463.604039,317.791979-505.363793,304.45805-714.870351,430.389603-842.272988,507.430083-72.194828,42.964883-142.266278,82.96667-155.006541,87.411314-31.142867,11.852381-89.889638,11.111608-121.032505-1.481548Zm323.461139-490.392284c139.435108-83.707444,320.629969-193.341973,402.026098-242.233047c82.103921-48.891074,198.181879-119.264589,258.344236-155.562507s123.155882-74.077384,140.1429-84.448218s29.727282-19.26012,28.311697-20.741668c-1.415585-.740774-65.824696-40.001788-143.681863-86.67054s-193.935125-117.042267-258.344236-155.562507-191.811748-115.56072-283.116971-170.377984-219.415652-132.598518-285.240348-171.859532l-118.201335-71.114289-79.980544,47.409526c-43.175338,25.927085-130.233806,77.781254-192.51954,115.56072s-198.889672,120.005363-304.350743,183.711913c-311.428668,187.415782-472.805341,284.457156-494.039114,298.531859l-20.52598,12.593155l66.532488,40.001788c36.097414,22.223215,123.155882,74.818158,193.227332,117.042267c471.389756,282.975608,620.026166,372.609243,732.565162,441.501211c48.837677,29.630954,92.013015,54.076491,96.967562,54.817264c4.246755,0,122.44809-68.891967,261.883198-152.599412ZM1296.506659,2673.372463c119.61692-71.855063,229.324746-137.783935,243.480595-145.932447c14.863641-8.889286,26.896112-17.778572,26.896112-20.741668c0-2.222322-101.214317-65.188098-224.370199-139.265483-123.863675-74.077384-235.694878-141.487804-247.727349-149.636316l-23.35715-14.815477v300.75418c0,165.192567,1.415585,300.75418,3.538962,300.75418s101.922109-59.261907,221.53903-131.11697Zm2223.883804-169.63721v-300.013407l-40.344168,23.704763c-257.636443,154.080959-451.571568,273.345548-452.987153,278.530965-1.415585,3.703869,35.389621,28.89018,80.688337,56.298812c46.006508,26.667858,155.006541,92.59673,242.772802,145.191673c87.766261,53.335717,161.376673,97.041373,164.915635,97.041373c2.83117,0,4.954547-135.561613,4.954547-300.75418ZM2057.383518,2215.574228c184.026031-110.375303,215.168898-122.968458,273.915669-108.893755c22.649358,5.185417,97.675355,45.927978,201.720842,108.893755c90.597431,54.817264,167.746805,100.004469,169.870182,100.004469c5.662339,0,87.766261-48.1503,307.889706-181.489592c79.980544-48.1503,189.68837-114.079172,244.188387-146.673221s106.876656-63.706551,115.370166-69.632741c19.110396-12.593155,47.422093,7.407738-264.006575-180.008044-70.07145-42.224109-178.363692-107.412207-240.649425-145.191673-62.285734-37.038692-215.87669-130.376196-341.863742-205.935128l-228.616954-137.043161-89.889638,54.076491c-49.54547,29.630954-175.532522,105.93066-280.993593,168.896436-104.753279,63.706551-242.06501,145.932447-304.350743,183.711913-62.285734,37.038692-180.487069,108.893755-263.298783,157.784829-113.246788,68.151194-147.928617,92.59673-141.558485,98.522921c4.954547,4.444643,77.149375,49.631848,160.668881,99.263695c83.519506,50.372621,215.87669,129.635423,293.733857,176.304175c176.240314,106.671433,210.922143,127.413101,217.292275,127.413101c2.123377,0,79.272752-45.187204,170.577975-100.004469Z" transform="translate(-2479.408305 3102.438459)" fill="#e30613"/></g><path d="" fill="none" stroke="#3f5787" stroke-width="0.6"/><g transform="matrix(.550917 0 0 0.550917 18.937304-3.361814)"><g><ellipse rx="106.41" ry="16.99" transform="translate(183.79 443.41)" fill="#ebebeb"/></g><g><rect width="65.02" height="245.17" rx="0" ry="0" transform="translate(267.37 176.42)" fill="#37474f"/><rect width="119.66" height="245.17" rx="0" ry="0" transform="translate(332.39 176.42)" fill="#455a64"/><rect width="103.21" height="23.84" rx="0" ry="0" transform="translate(341.37 389.79)" fill="#37474f"/><rect width="58.75" height="2.01" rx="0" ry="0" transform="translate(345.71 393.73)" fill="#455a64"/><rect width="58.75" height="2.01" rx="0" ry="0" transform="translate(345.71 397.22)" fill="#455a64"/><rect width="58.75" height="2.01" rx="0" ry="0" transform="translate(345.71 400.71)" fill="#455a64"/><rect width="58.75" height="2.01" rx="0" ry="0" transform="translate(345.71 404.19)" fill="#455a64"/><rect width="58.75" height="2.01" rx="0" ry="0" transform="translate(345.71 407.68)" fill="#455a64"/><path d="M415.17,395.73c0,1.104569-.895431,2-2,2s-2-.895431-2-2s.895431-2,2-2s2,.895431,2,2Z" fill="#e30613"/><path d="M421.75,395.73c0,1.104569-.895431,2-2,2s-2-.895431-2-2s.895431-2,2-2s2,.895431,2,2Z" fill="#e30613"/><path d="M428.33,395.73c0,1.104569-.895431,2-2,2s-2-.895431-2-2s.895431-2,2-2s2,.895431,2,2Z" fill="#e30613"/><path d="M434.9,395.73c0,1.104569-.895431,2-2,2s-2-.895431-2-2s.895431-2,2-2s2,.895431,2,2Z" fill="#e30613"/><path d="M441.48,395.73c0,1.104569-.895431,2-2,2s-2-.895431-2-2s.895431-2,2-2s2,.895431,2,2Z" fill="#e30613"/><path d="M415.17,401.71c0,1.104569-.895431,2-2,2s-2-.895431-2-2s.895431-2,2-2s2,.895431,2,2Z" fill="#e30613"/><path d="M421.75,401.71c0,1.104569-.895431,2-2,2s-2-.895431-2-2s.895431-2,2-2s2,.895431,2,2Z" fill="#e30613"/><path d="M428.33,401.71c0,1.104569-.895431,2-2,2s-2-.895431-2-2s.895431-2,2-2s2,.895431,2,2Z" fill="#e30613"/><path d="M434.9,401.71c0,1.104569-.895431,2-2,2s-2-.895431-2-2s.895431-2,2-2s2,.895431,2,2Z" fill="#e30613"/><path d="M441.48,401.71c0,1.104569-.895431,2-2,2s-2-.895431-2-2s.895431-2,2-2s2,.895431,2,2Z" fill="#e30613"/><circle r="2" transform="translate(413.18 407.7)" fill="#e30613"/><path d="M421.75,407.7c0,1.104569-.895431,2-2,2s-2-.895431-2-2s.895431-2,2-2s2,.895431,2,2Z" fill="#e30613"/><circle r="2" transform="translate(426.33 407.7)" fill="#e30613"/><path d="M434.9,407.7c0,1.104569-.895431,2-2,2s-2-.895431-2-2s.895431-2,2-2s2,.895431,2,2Z" fill="#e30613"/><path d="M441.48,407.7c0,1.104569-.895431,2-2,2s-2-.895431-2-2s.895431-2,2-2s2,.895431,2,2Z" fill="#e30613"/><rect width="1.15" height="15.96" rx="0" ry="0" transform="translate(407.4 393.73)" fill="#263238"/><rect width="103.21" height="23.84" rx="0" ry="0" transform="translate(341.37 361.07)" fill="#37474f"/><rect width="58.75" height="2.01" rx="0" ry="0" transform="translate(345.71 365)" fill="#455a64"/><rect width="58.75" height="2.01" rx="0" ry="0" transform="translate(345.71 368.49)" fill="#455a64"/><rect width="58.75" height="2.01" rx="0" ry="0" transform="translate(345.71 371.98)" fill="#455a64"/><rect width="58.75" height="2.01" rx="0" ry="0" transform="translate(345.71 375.47)" fill="#455a64"/><rect width="58.75" height="2.01" rx="0" ry="0" transform="translate(345.71 378.95)" fill="#455a64"/><path d="M415.17,367c0,1.104569-.895431,2-2,2s-2-.895431-2-2s.895431-2,2-2s2,.895431,2,2Z" fill="#e30613"/><path d="M421.75,367c0,1.104569-.895431,2-2,2s-2-.895431-2-2s.895431-2,2-2s2,.895431,2,2Z" fill="#e30613"/><path d="M428.33,367c0,1.104569-.895431,2-2,2s-2-.895431-2-2s.895431-2,2-2s2,.895431,2,2Z" fill="#e30613"/><path d="M434.9,367c0,1.104569-.895431,2-2,2s-2-.895431-2-2s.895431-2,2-2s2,.895431,2,2Z" fill="#e30613"/><path d="M441.48,367c0,1.104569-.895431,2-2,2s-2-.895431-2-2s.895431-2,2-2s2,.895431,2,2Z" fill="#e30613"/><path d="M415.17,373c0,1.104569-.895431,2-2,2s-2-.895431-2-2s.895431-2,2-2s2,.895431,2,2Z" fill="#e30613"/><path d="M421.75,373c0,1.104569-.895431,2-2,2s-2-.895431-2-2s.895431-2,2-2s2,.895431,2,2Z" fill="#e30613"/><path d="M428.33,373c0,1.104569-.895431,2-2,2s-2-.895431-2-2s.895431-2,2-2s2,.895431,2,2Z" fill="#e30613"/><path d="M434.9,373c0,1.104569-.895431,2-2,2s-2-.895431-2-2s.895431-2,2-2s2,.895431,2,2Z" fill="#e30613"/><path d="M441.48,373c0,1.104569-.895431,2-2,2s-2-.895431-2-2s.895431-2,2-2s2,.895431,2,2Z" fill="#e30613"/><path d="M415.17,379c0,1.104569-.895431,2-2,2s-2-.895431-2-2s.895431-2,2-2s2,.895431,2,2Z" fill="#e30613"/><path d="M421.75,379c0,1.104569-.895431,2-2,2s-2-.895431-2-2s.895431-2,2-2s2,.895431,2,2Z" fill="#e30613"/><path d="M428.33,379c0,1.104569-.895431,2-2,2s-2-.895431-2-2s.895431-2,2-2s2,.895431,2,2Z" fill="#e30613"/><path d="M434.9,379c0,1.104569-.895431,2-2,2s-2-.895431-2-2s.895431-2,2-2s2,.895431,2,2Z" fill="#e30613"/><path d="M441.48,379c0,1.104569-.895431,2-2,2s-2-.895431-2-2s.895431-2,2-2s2,.895431,2,2Z" fill="#e30613"/><rect width="1.15" height="15.96" rx="0" ry="0" transform="translate(407.4 365)" fill="#263238"/><rect width="103.21" height="23.84" rx="0" ry="0" transform="translate(341.37 332.34)" fill="#37474f"/><rect width="58.75" height="2.01" rx="0" ry="0" transform="translate(345.71 336.28)" fill="#455a64"/><rect width="58.75" height="2.01" rx="0" ry="0" transform="translate(345.71 339.76)" fill="#455a64"/><rect width="58.75" height="2.01" rx="0" ry="0" transform="translate(345.71 343.25)" fill="#455a64"/><rect width="58.75" height="2.01" rx="0" ry="0" transform="translate(345.71 346.74)" fill="#455a64"/><rect width="58.75" height="2.01" rx="0" ry="0" transform="translate(345.71 350.23)" fill="#455a64"/><circle r="2" transform="translate(413.18 338.27)" fill="#e30613"/><path d="M421.75,338.27c0,1.104569-.895431,2-2,2s-2-.895431-2-2s.895431-2,2-2s2,.895431,2,2Z" fill="#e30613"/><circle r="2" transform="translate(426.33 338.27)" fill="#e30613"/><path d="M434.9,338.27c0,1.104569-.895431,2-2,2s-2-.895431-2-2s.895431-2,2-2s2,.895431,2,2Z" fill="#e30613"/><path d="M441.48,338.27c0,1.104569-.895431,2-2,2s-2-.895431-2-2s.895431-2,2-2s2,.895431,2,2Z" fill="#e30613"/><path d="M415.17,344.26c0,1.104569-.895431,2-2,2s-2-.895431-2-2s.895431-2,2-2s2,.895431,2,2Z" fill="#e30613"/><path d="M421.75,344.26c0,1.104569-.895431,2-2,2s-2-.895431-2-2s.895431-2,2-2s2,.895431,2,2Z" fill="#e30613"/><path d="M428.33,344.26c0,1.104569-.895431,2-2,2s-2-.895431-2-2s.895431-2,2-2s2,.895431,2,2Z" fill="#e30613"/><path d="M434.9,344.26c0,1.104569-.895431,2-2,2s-2-.895431-2-2s.895431-2,2-2s2,.895431,2,2Z" fill="#e30613"/><path d="M441.48,344.26c0,1.104569-.895431,2-2,2s-2-.895431-2-2s.895431-2,2-2s2,.895431,2,2Z" fill="#e30613"/><path d="M415.17,350.24c0,1.104569-.895431,2-2,2s-2-.895431-2-2s.895431-2,2-2s2,.895431,2,2Z" fill="#e30613"/><path d="M421.75,350.24c0,1.104569-.895431,2-2,2s-2-.895431-2-2s.895431-2,2-2s2,.895431,2,2Z" fill="#e30613"/><path d="M428.33,350.24c0,1.104569-.895431,2-2,2s-2-.895431-2-2s.895431-2,2-2s2,.895431,2,2Z" fill="#e30613"/><path d="M434.9,350.24c0,1.104569-.895431,2-2,2s-2-.895431-2-2s.895431-2,2-2s2,.895431,2,2Z" fill="#e30613"/><path d="M441.48,350.24c0,1.104569-.895431,2-2,2s-2-.895431-2-2s.895431-2,2-2s2,.895431,2,2Z" fill="#e30613"/><rect width="1.15" height="15.96" rx="0" ry="0" transform="translate(407.4 336.28)" fill="#263238"/><rect width="103.21" height="23.84" rx="0" ry="0" transform="translate(341.37 303.61)" fill="#37474f"/><rect width="58.75" height="2.01" rx="0" ry="0" transform="translate(345.71 307.55)" fill="#455a64"/><rect width="58.75" height="2.01" rx="0" ry="0" transform="translate(345.71 311.03)" fill="#455a64"/><rect width="58.75" height="2.01" rx="0" ry="0" transform="translate(345.71 314.52)" fill="#455a64"/><rect width="58.75" height="2.01" rx="0" ry="0" transform="translate(345.71 318.01)" fill="#455a64"/><rect width="58.75" height="2.01" rx="0" ry="0" transform="translate(345.71 321.5)" fill="#455a64"/><path d="M415.17,309.54c0,1.104569-.895431,2-2,2s-2-.895431-2-2s.895431-2,2-2s2,.895431,2,2Z" fill="#e30613"/><path d="M421.75,309.54c0,1.104569-.895431,2-2,2s-2-.895431-2-2s.895431-2,2-2s2,.895431,2,2Z" fill="#e30613"/><path d="M428.33,309.54c0,1.104569-.895431,2-2,2s-2-.895431-2-2s.895431-2,2-2s2,.895431,2,2Z" fill="#e30613"/><path d="M434.9,309.54c0,1.104569-.895431,2-2,2s-2-.895431-2-2s.895431-2,2-2s2,.895431,2,2Z" fill="#e30613"/><path d="M441.48,309.54c0,1.104569-.895431,2-2,2s-2-.895431-2-2s.895431-2,2-2s2,.895431,2,2Z" fill="#e30613"/><circle r="2" transform="translate(413.18 315.53)" fill="#e30613"/><path d="M421.75,315.53c0,1.104569-.895431,2-2,2s-2-.895431-2-2s.895431-2,2-2s2,.895431,2,2Z" fill="#e30613"/><circle r="2" transform="translate(426.33 315.53)" fill="#e30613"/><path d="M434.9,315.53c0,1.104569-.895431,2-2,2s-2-.895431-2-2s.895431-2,2-2s2,.895431,2,2Z" fill="#e30613"/><path d="M441.48,315.53c0,1.104569-.895431,2-2,2s-2-.895431-2-2s.895431-2,2-2s2,.895431,2,2Z" fill="#e30613"/><circle r="2" transform="translate(413.18 321.51)" fill="#e30613"/><path d="M421.75,321.51c0,1.104569-.895431,2-2,2s-2-.895431-2-2s.895431-2,2-2s2,.895431,2,2Z" fill="#e30613"/><circle r="2" transform="translate(426.33 321.51)" fill="#e30613"/><path d="M434.9,321.51c0,1.104569-.895431,2-2,2s-2-.895431-2-2s.895431-2,2-2s2,.895431,2,2Z" fill="#e30613"/><path d="M441.48,321.51c0,1.104569-.895431,2-2,2s-2-.895431-2-2s.895431-2,2-2s2,.895431,2,2Z" fill="#e30613"/><rect width="1.15" height="15.96" rx="0" ry="0" transform="translate(407.4 307.55)" fill="#263238"/><rect width="103.21" height="23.84" rx="0" ry="0" transform="translate(341.37 274.88)" fill="#37474f"/><rect width="58.75" height="2.01" rx="0" ry="0" transform="translate(345.71 278.82)" fill="#455a64"/><rect width="58.75" height="2.01" rx="0" ry="0" transform="translate(345.71 282.31)" fill="#455a64"/><rect width="58.75" height="2.01" rx="0" ry="0" transform="translate(345.71 285.79)" fill="#455a64"/><rect width="58.75" height="2.01" rx="0" ry="0" transform="translate(345.71 289.28)" fill="#455a64"/><rect width="58.75" height="2.01" rx="0" ry="0" transform="translate(345.71 292.77)" fill="#455a64"/><circle r="2" transform="translate(413.18 280.82)" fill="#e30613"/><path d="M421.75,280.82c0,1.104569-.895431,2-2,2s-2-.895431-2-2s.895431-2,2-2s2,.895431,2,2Z" fill="#e30613"/><circle r="2" transform="translate(426.33 280.82)" fill="#e30613"/><path d="M434.9,280.82c0,1.104569-.895431,2-2,2s-2-.895431-2-2s.895431-2,2-2s2,.895431,2,2Z" fill="#e30613"/><path d="M441.48,280.82c0,1.104569-.895431,2-2,2s-2-.895431-2-2s.895431-2,2-2s2,.895431,2,2Z" fill="#e30613"/><circle r="2" transform="translate(413.18 286.8)" fill="#e30613"/><path d="M421.75,286.8c0,1.104569-.895431,2-2,2s-2-.895431-2-2s.895431-2,2-2s2,.895431,2,2Z" fill="#e30613"/><circle r="2" transform="translate(426.33 286.8)" fill="#e30613"/><path d="M434.9,286.8c0,1.104569-.895431,2-2,2s-2-.895431-2-2s.895431-2,2-2s2,.895431,2,2Z" fill="#e30613"/><path d="M441.48,286.8c0,1.104569-.895431,2-2,2s-2-.895431-2-2s.895431-2,2-2s2,.895431,2,2Z" fill="#e30613"/><path d="M415.17,292.79c0,1.104569-.895431,2-2,2s-2-.895431-2-2s.895431-2,2-2s2,.895431,2,2Z" fill="#e30613"/><path d="M421.75,292.79c0,1.104569-.895431,2-2,2s-2-.895431-2-2s.895431-2,2-2s2,.895431,2,2Z" fill="#e30613"/><path d="M428.33,292.79c0,1.104569-.895431,2-2,2s-2-.895431-2-2s.895431-2,2-2s2,.895431,2,2Z" fill="#e30613"/><path d="M434.9,292.79c0,1.104569-.895431,2-2,2s-2-.895431-2-2s.895431-2,2-2s2,.895431,2,2Z" fill="#e30613"/><path d="M441.48,292.79c0,1.104569-.895431,2-2,2s-2-.895431-2-2s.895431-2,2-2s2,.895431,2,2Z" fill="#e30613"/><rect width="1.15" height="15.96" rx="0" ry="0" transform="translate(407.4 278.82)" fill="#263238"/><rect width="103.21" height="23.84" rx="0" ry="0" transform="translate(341.37 246.15)" fill="#37474f"/><rect width="58.75" height="2.01" rx="0" ry="0" transform="translate(345.71 250.09)" fill="#455a64"/><rect width="58.75" height="2.01" rx="0" ry="0" transform="translate(345.71 253.58)" fill="#455a64"/><rect width="58.75" height="2.01" rx="0" ry="0" transform="translate(345.71 257.07)" fill="#455a64"/><rect width="58.75" height="2.01" rx="0" ry="0" transform="translate(345.71 260.55)" fill="#455a64"/><rect width="58.75" height="2.01" rx="0" ry="0" transform="translate(345.71 264.04)" fill="#455a64"/><path d="M415.17,252.09c0,1.104569-.895431,2-2,2s-2-.895431-2-2s.895431-2,2-2s2,.895431,2,2Z" fill="#e30613"/><path d="M421.75,252.09c0,1.104569-.895431,2-2,2s-2-.895431-2-2s.895431-2,2-2s2,.895431,2,2Z" fill="#e30613"/><path d="M428.33,252.09c0,1.104569-.895431,2-2,2s-2-.895431-2-2s.895431-2,2-2s2,.895431,2,2Z" fill="#e30613"/><path d="M434.9,252.09c0,1.104569-.895431,2-2,2s-2-.895431-2-2s.895431-2,2-2s2,.895431,2,2Z" fill="#e30613"/><path d="M441.48,252.09c0,1.104569-.895431,2-2,2s-2-.895431-2-2s.895431-2,2-2s2,.895431,2,2Z" fill="#e30613"/><path d="M415.17,258.07c0,1.104569-.895431,2-2,2s-2-.895431-2-2s.895431-2,2-2s2,.895431,2,2Z" fill="#e30613"/><path d="M421.75,258.07c0,1.104569-.895431,2-2,2s-2-.895431-2-2s.895431-2,2-2s2,.895431,2,2Z" fill="#e30613"/><path d="M428.33,258.07c0,1.104569-.895431,2-2,2s-2-.895431-2-2s.895431-2,2-2s2,.895431,2,2Z" fill="#e30613"/><path d="M434.9,258.07c0,1.104569-.895431,2-2,2s-2-.895431-2-2s.895431-2,2-2s2,.895431,2,2Z" fill="#e30613"/><path d="M441.48,258.07c0,1.104569-.895431,2-2,2s-2-.895431-2-2s.895431-2,2-2s2,.895431,2,2Z" fill="#e30613"/><path d="M415.17,264.06c0,1.104569-.895431,2-2,2s-2-.895431-2-2s.895431-2,2-2s2,.895431,2,2Z" fill="#e30613"/><path d="M421.75,264.06c0,1.104569-.895431,2-2,2s-2-.895431-2-2s.895431-2,2-2s2,.895431,2,2Z" fill="#e30613"/><path d="M428.33,264.06c0,1.104569-.895431,2-2,2s-2-.895431-2-2s.895431-2,2-2s2,.895431,2,2Z" fill="#e30613"/><path d="M434.9,264.06c0,1.104569-.895431,2-2,2s-2-.895431-2-2s.895431-2,2-2s2,.895431,2,2Z" fill="#e30613"/><path d="M441.48,264.06c0,1.104569-.895431,2-2,2s-2-.895431-2-2s.895431-2,2-2s2,.895431,2,2Z" fill="#e30613"/><rect width="1.15" height="15.96" rx="0" ry="0" transform="translate(407.4 250.09)" fill="#263238"/><rect width="103.21" height="23.84" rx="0" ry="0" transform="translate(341.37 217.43)" fill="#37474f"/><rect width="58.75" height="2.01" rx="0" ry="0" transform="translate(345.71 221.36)" fill="#455a64"/><rect width="58.75" height="2.01" rx="0" ry="0" transform="translate(345.71 224.85)" fill="#455a64"/><rect width="58.75" height="2.01" rx="0" ry="0" transform="translate(345.71 228.34)" fill="#455a64"/><rect width="58.75" height="2.01" rx="0" ry="0" transform="translate(345.71 231.83)" fill="#455a64"/><rect width="58.75" height="2.01" rx="0" ry="0" transform="translate(345.71 235.31)" fill="#455a64"/><path d="M415.17,223.36c0,1.104569-.895431,2-2,2s-2-.895431-2-2s.895431-2,2-2s2,.895431,2,2Z" fill="#e30613"/><path d="M421.75,223.36c0,1.104569-.895431,2-2,2s-2-.895431-2-2s.895431-2,2-2s2,.895431,2,2Z" fill="#e30613"/><path d="M428.33,223.36c0,1.104569-.895431,2-2,2s-2-.895431-2-2s.895431-2,2-2s2,.895431,2,2Z" fill="#e30613"/><path d="M434.9,223.36c0,1.104569-.895431,2-2,2s-2-.895431-2-2s.895431-2,2-2s2,.895431,2,2Z" fill="#e30613"/><path d="M441.48,223.36c0,1.104569-.895431,2-2,2s-2-.895431-2-2s.895431-2,2-2s2,.895431,2,2Z" fill="#e30613"/><path d="M415.17,229.35c0,1.104569-.895431,2-2,2s-2-.895431-2-2s.895431-2,2-2s2,.895431,2,2Z" fill="#e30613"/><path d="M421.75,229.35c0,1.104569-.895431,2-2,2s-2-.895431-2-2s.895431-2,2-2s2,.895431,2,2Z" fill="#e30613"/><path d="M428.33,229.35c0,1.104569-.895431,2-2,2s-2-.895431-2-2s.895431-2,2-2s2,.895431,2,2Z" fill="#e30613"/><path d="M434.9,229.35c0,1.104569-.895431,2-2,2s-2-.895431-2-2s.895431-2,2-2s2,.895431,2,2Z" fill="#e30613"/><path d="M441.48,229.35c0,1.104569-.895431,2-2,2s-2-.895431-2-2s.895431-2,2-2s2,.895431,2,2Z" fill="#e30613"/><path d="M415.17,235.33c0,1.104569-.895431,2-2,2s-2-.895431-2-2s.895431-2,2-2s2,.895431,2,2Z" fill="#e30613"/><path d="M421.75,235.33c0,1.104569-.895431,2-2,2s-2-.895431-2-2s.895431-2,2-2s2,.895431,2,2Z" fill="#e30613"/><path d="M428.33,235.33c0,1.104569-.895431,2-2,2s-2-.895431-2-2s.895431-2,2-2s2,.895431,2,2Z" fill="#e30613"/><path d="M434.9,235.33c0,1.104569-.895431,2-2,2s-2-.895431-2-2s.895431-2,2-2s2,.895431,2,2Z" fill="#e30613"/><path d="M441.48,235.33c0,1.104569-.895431,2-2,2s-2-.895431-2-2s.895431-2,2-2s2,.895431,2,2Z" fill="#e30613"/><rect width="1.15" height="15.96" rx="0" ry="0" transform="translate(407.4 221.36)" fill="#263238"/><rect width="103.21" height="23.84" rx="0" ry="0" transform="translate(341.37 188.7)" fill="#37474f"/><rect width="58.75" height="2.01" rx="0" ry="0" transform="translate(345.71 192.64)" fill="#455a64"/><rect width="58.75" height="2.01" rx="0" ry="0" transform="translate(345.71 196.12)" fill="#455a64"/><rect width="58.75" height="2.01" rx="0" ry="0" transform="translate(345.71 199.61)" fill="#455a64"/><rect width="58.75" height="2.01" rx="0" ry="0" transform="translate(345.71 203.1)" fill="#455a64"/><rect width="58.75" height="2.01" rx="0" ry="0" transform="translate(345.71 206.59)" fill="#455a64"/><path d="M415.17,194.63c0,1.104569-.895431,2-2,2s-2-.895431-2-2s.895431-2,2-2s2,.895431,2,2Z" fill="#e30613"/><path d="M421.75,194.63c0,1.104569-.895431,2-2,2s-2-.895431-2-2s.895431-2,2-2s2,.895431,2,2Z" fill="#e30613"/><path d="M428.33,194.63c0,1.104569-.895431,2-2,2s-2-.895431-2-2s.895431-2,2-2s2,.895431,2,2Z" fill="#e30613"/><path d="M434.9,194.63c0,1.104569-.895431,2-2,2s-2-.895431-2-2s.895431-2,2-2s2,.895431,2,2Z" fill="#e30613"/><path d="M441.48,194.63c0,1.104569-.895431,2-2,2s-2-.895431-2-2s.895431-2,2-2s2,.895431,2,2Z" fill="#e30613"/><circle r="2" transform="translate(413.18 200.62)" fill="#e30613"/><path d="M421.75,200.62c0,1.104569-.895431,2-2,2s-2-.895431-2-2s.895431-2,2-2s2,.895431,2,2Z" fill="#e30613"/><circle r="2" transform="translate(426.33 200.62)" fill="#e30613"/><path d="M434.9,200.62c0,1.104569-.895431,2-2,2s-2-.895431-2-2s.895431-2,2-2s2,.895431,2,2Z" fill="#e30613"/><path d="M441.48,200.62c0,1.104569-.895431,2-2,2s-2-.895431-2-2s.895431-2,2-2s2,.895431,2,2Z" fill="#e30613"/><path d="M415.17,206.6c0,1.104569-.895431,2-2,2s-2-.895431-2-2s.895431-2,2-2s2,.895431,2,2Z" fill="#e30613"/><path d="M421.75,206.6c0,1.104569-.895431,2-2,2s-2-.895431-2-2s.895431-2,2-2s2,.895431,2,2Z" fill="#e30613"/><path d="M428.33,206.6c0,1.104569-.895431,2-2,2s-2-.895431-2-2s.895431-2,2-2s2,.895431,2,2Z" fill="#e30613"/><path d="M434.9,206.6c0,1.104569-.895431,2-2,2s-2-.895431-2-2s.895431-2,2-2s2,.895431,2,2Z" fill="#e30613"/><path d="M441.48,206.6c0,1.104569-.895431,2-2,2s-2-.895431-2-2s.895431-2,2-2s2,.895431,2,2Z" fill="#e30613"/><rect width="1.15" height="15.96" rx="0" ry="0" transform="translate(407.4 192.64)" fill="#263238"/><rect width="136.05" height="7.56" rx="0" ry="0" transform="translate(291.69 168.86)" fill="#37474f"/><rect width="15.19" height="15.19" rx="0" ry="0" transform="translate(277.86 384.07)" fill="#263238"/></g><g><path d="M82.72,113.28v22.21c1.656583-2.286337,3.922897-4.060577,6.54-5.12c1.664339-.639642,3.437399-.948738,5.22-.91q10.26,0,15.15,7.18q4.22,6.2,4.22,17.51v22.29q0,11.48-7.27,18.83c-4.580385,4.714819-10.929377,7.290696-17.5,7.1-6.484922.15066-12.705804-2.568232-17-7.43-4.339736-4.715791-6.677537-10.933193-6.52-17.34v-2.48L80.49,174l.33,3.55q.59,6.19,5,8.26c.871827.437654,1.834496.663761,2.81.66q9.57,0,9.57-10v-25.38c.069509-2.873345-1.148062-5.627548-3.32-7.51-1.239026-1.002263-2.809618-1.501997-4.4-1.4-2.485103-.146809-4.847752,1.092235-6.14,3.22-1.086223,1.790897-1.660388,3.845437-1.66,5.94v2.81h-15.56v-56.56h45.66v15.69h-30.06Z" transform="translate(-89.832521 120.125238)" fill="#e30613"/></g><g><rect width="26.56" height="26.56" rx="0" ry="0" transform="translate(43.46 353.74)" fill="#37474f"/><circle r="8.87" transform="translate(56.74 367.01)" fill="#455a64"/><rect width="2" height="7.32" rx="0" ry="0" transform="translate(53.12 363.43)" fill="#263238"/><rect width="2" height="7.32" rx="0" ry="0" transform="translate(58.68 363.43)" fill="#263238"/></g><g><polygon points="36.85,421.59 90.14,421.35 143.43,421.26 250,421.09 356.57,421.26 409.86,421.35 463.15,421.59 409.86,421.84 356.57,421.93 250,422.09 143.43,421.92 90.14,421.83 36.85,421.59" fill="#263238"/></g><g><path d="M74.9,395.89c3.971674-.231441,7.956672.040721,11.86.81-3.97167.230583-7.95656-.041572-11.86-.81Z" fill="#263238"/><path d="M103.69,402.22c1.875592.65169,3.703373,1.433593,5.47,2.34c1.779609.87591,3.494018,1.878488,5.13,3-3.74487-1.329045-7.306497-3.126658-10.6-5.35v.01Z" fill="#263238"/><path d="M81.25,416c1.967457-3.45667,4.366721-6.648969,7.14-9.5-.968074,1.743296-2.060923,3.414319-3.27,5-1.181026,1.590378-2.474328,3.094217-3.87,4.5Z" fill="#263238"/><path d="M70,384.07c1.55.49,3.06,1.05,4.56,1.63s3,1.2,4.48,1.83s3,1.28,4.41,2s2.92,1.39,4.34,2.17c-1.55-.5-3.06-1.06-4.56-1.64s-3-1.2-4.48-1.83-3-1.28-4.41-2-2.91-1.39-4.34-2.16Z" fill="#263238"/><path d="M105.13,392.93c1.393208-.699987,2.845517-1.275557,4.34-1.72c1.483165-.470765,3.006121-.805481,4.55-1-2.79347,1.391615-5.796949,2.313943-8.89,2.73v-.01Z" fill="#263238"/><path d="M90.75,387.87c-.82-1.3-1.56-2.63-2.29-4s-1.43-2.7-2.12-4.07-1.35-2.74-2-4.14-1.25-2.79-1.79-4.23c.82,1.3,1.57,2.64,2.3,4s1.43,2.7,2.12,4.06s1.34,2.74,2,4.14s1.24,2.8,1.78,4.24Z" fill="#263238"/><path d="M111,419.5c-.89-1-1.72-2.09-2.53-3.16s-1.59-2.18-2.37-3.28-1.51-2.23-2.22-3.38-1.42-2.3-2.06-3.49c.89,1,1.72,2.09,2.53,3.16s1.6,2.18,2.37,3.28s1.51,2.23,2.22,3.38s1.42,2.29,2.06,3.49Z" fill="#263238"/></g><g><polygon points="379.94,168.86 297.28,168.86 290.88,112.72 373.54,112.72 379.94,168.86" fill="#a6a6a6"/><polygon points="375.44,165.1 300.93,165.1 295.39,116.49 369.9,116.49 375.44,165.1" fill="#fff"/><polygon points="329.42,142.06 328.23,143.48 316.51,133.36 317.7,131.94 329.42,142.06" fill="#e30613"/><polygon points="326.4,131.94 328.04,133.36 319.53,143.48 317.89,142.06 326.4,131.94" fill="#e30613"/><polygon points="354.48,142.06 353.29,143.48 341.57,133.36 342.76,131.94 354.48,142.06" fill="#e30613"/><polygon points="351.46,131.94 353.1,133.36 344.59,143.48 342.95,142.06 351.46,131.94" fill="#e30613"/><polygon points="315.01,151.79 314.69,149.79 360.12,149.79 360.44,151.79 315.01,151.79" fill="#e30613"/><rect width="106.34" height="3.77" rx="0" ry="0" transform="translate(297.86 165.1)" fill="#a6a6a6"/><rect width="92.22" height="3.77" rx="0" ry="0" transform="translate(320.96 165.1)" fill="#c7c7c7"/><polygon points="370.17,118.85 369.9,116.49 295.39,116.49 295.66,118.85 370.17,118.85" fill="#263238"/><path d="M301.66,117.67c.024378.313475.276154.560983.59.58.143188-.002819.277638-.069428.366631-.181638s.123233-.258295.093369-.398362c-.019586-.317382-.272618-.570414-.59-.59-.144022.005767-.278199.074652-.366824.188323s-.122707.260598-.093176.401677Z" fill="#c7c7c7"/><path d="M299.5,117.67c.029127.315071.284123.561568.6.58.141889-.006253.274084-.073764.362339-.185041s.123885-.255374.097661-.394959c-.023817-.315457-.274543-.566183-.59-.59-.144507.006291-.279209.074853-.369334.187988s-.126839.259755-.100666.402012Z" fill="#fff"/><path d="M297.35,117.67c.024378.313475.276154.560983.59.58.143188-.002819.277638-.069428.366631-.181638s.123233-.258295.093369-.398362c-.019586-.317382-.272618-.570414-.59-.59-.144022.005767-.278199.074652-.366824.188323s-.122707.260598-.093176.401677Z" fill="#e30613"/></g></g><path d="M80.46483,206.02143c-5.323781,3.06632-10.452651,9.389785-23.83561,18.77957" transform="matrix(3.335233 0 0 3.052547-183.310595-387.969805)" fill="#f00" stroke="#fff" stroke-width="0.6"/><g transform="matrix(.015831 0 0-.015831 40.613738 237.325792)"><path d="M2273.684141,4051.270779c-38.569836-14.59927-1426.35621-817.559127-1456.193253-843.10785-14.554655-11.679416-33.475707-36.498175-42.2085-54.747263C760,3119.837345,760,3118.377418,760,2483.309167c0-608.059601.727733-638.718068,13.826922-666.456681c26.198379-56.20719,21.831983-53.287336,379.148768-259.137045c85.872466-49.637518,208.859302-120.443979,272.899785-157.672117c647.682157-374.471279,843.442269-484.695768,870.368381-491.995403c45.847164-12.40938,88.783397-4.379781,151.368414,30.658467c219.775294,120.443979,1398.702365,807.339638,1417.623417,824.858762c13.09919,12.40938,29.837043,37.228139,38.569836,54.747263c14.554655,30.658467,14.554655,43.067847,14.554655,664.996754v633.608324l-18.193319,36.498175c-29.10931,59.127044,13.826922,30.658467-476.664958,313.154344-519.601191,300.015001-735.010088,424.108797-866.001985,500.025002-74.228742,42.337883-146.274285,81.755913-159.373475,86.135694-32.020241,11.679416-92.422061,10.949453-124.442302-1.459927Zm332.573871-483.235841c143.363354-82.485876,329.66294-190.520475,413.352208-238.698067c84.417-48.177591,203.765173-117.524125,265.622458-153.292336s126.6255-72.996351,144.091087-83.21584s30.564776-18.979051,29.10931-20.438978c-1.455466-.729964-67.679147-39.418029-147.72975-85.40573s-199.398776-115.334234-265.622458-153.292336-197.215578-113.874307-291.093104-167.891606-225.597156-130.663468-293.276302-169.351534l-121.531371-70.076497-82.233802,46.717664c-44.391698,25.548723-133.902828,76.646168-197.943311,113.874307s-204.492906,118.254088-312.925087,181.03095c-320.202415,184.680767-486.125484,280.305986-507.957467,294.175293l-21.10425,12.40938l68.406879,39.418029c37.114371,21.898905,126.6255,73.726314,198.671044,115.334234c484.670018,278.846059,637.493898,367.171644,753.203407,435.05825c50.21356,29.19854,94.605259,53.287336,99.699388,54.017299c4.366397,0,125.897768-67.886606,269.261121-150.372482ZM1311.621432,2647.550956c122.986836-70.80646,235.785414-135.773212,250.34007-143.802811c15.282388-8.759562,27.653845-17.519124,27.653845-20.438978c0-2.189891-104.065785-64.236789-230.691285-137.233139-127.353233-72.996351-242.335009-139.42303-254.706466-147.452628l-24.015181-14.59927v296.365184c0,162.781862,1.455466,296.365184,3.638664,296.365184s104.793517-58.397081,227.780354-129.203541Zm2286.536333-167.161643v-295.63522l-41.480767,23.358832c-264.894725,151.832409-464.293501,269.356534-465.748967,274.466278-1.455466,3.649818,36.386638,28.468577,82.961535,55.477226c47.302629,26.278686,159.373475,91.245438,249.612337,143.072847c90.238862,52.557372,165.923069,95.625219,169.561733,95.625219c2.910931,0,5.094129-133.583322,5.094129-296.365184ZM2093.93415,2196.433509c189.210518-108.764562,221.230759-121.173942,281.632578-107.304635c23.287448,5.109745,100.427121,45.257737,207.403837,107.304635c93.149793,54.017299,172.472664,98.545073,174.655862,98.545073c5.821862,0,90.238862-47.447628,316.563751-178.841059c82.233802-47.447628,195.03238-112.41438,251.067802-144.532774s109.887647-62.776862,118.62044-68.61657c19.648785-12.40938,48.758095,7.299635-271.44432-177.381132-72.045543-41.60792-183.388656-105.844708-247.429139-143.072847-64.040483-36.498175-221.958492-128.473577-351.494923-202.929855l-235.057682-135.043249-92.422061,53.287336c-50.941293,29.19854-180.477725,104.384781-288.909906,166.431679-107.704449,62.776862-248.884604,143.802811-312.925087,181.03095-64.040483,36.498175-185.571854,107.304635-270.716587,155.482227-116.437242,67.156643-152.096147,91.245438-145.546552,97.085146c5.094129,4.379781,79.322871,48.907555,165.195337,97.81511c85.872466,49.637518,221.958492,127.743614,302.009096,173.731315c181.205457,105.114745,216.864363,125.553723,223.413957,125.553723c2.183198,0,81.506069-44.527774,175.383595-98.545073Z" transform="translate(2914.117426 2954.036892)" fill="#e30613"/></g></svg>
